G75*
%MOIN*%
%OFA0B0*%
%FSLAX24Y24*%
%IPPOS*%
%LPD*%
%AMOC8*
5,1,8,0,0,1.08239X$1,22.5*
%
%ADD10C,0.0480*%
%ADD11OC8,0.0480*%
%ADD12C,0.0380*%
%ADD13C,0.0591*%
%ADD14OC8,0.0500*%
%ADD15C,0.0500*%
%ADD16C,0.0531*%
%ADD17OC8,0.0600*%
%ADD18C,0.0640*%
%ADD19C,0.2000*%
%ADD20C,0.0100*%
%ADD21C,0.0270*%
D10*
X000785Y009245D02*
X001265Y009245D01*
X001265Y010245D02*
X000785Y010245D01*
X000785Y011245D02*
X001265Y011245D01*
X001265Y012245D02*
X000785Y012245D01*
X000785Y013245D02*
X001265Y013245D01*
X001265Y014245D02*
X000785Y014245D01*
X000785Y015245D02*
X001265Y015245D01*
X001265Y016245D02*
X000785Y016245D01*
X000785Y017245D02*
X001265Y017245D01*
X001265Y018245D02*
X000785Y018245D01*
X000785Y019245D02*
X001265Y019245D01*
X001265Y020245D02*
X000785Y020245D01*
X000785Y021245D02*
X001265Y021245D01*
X001265Y022245D02*
X000785Y022245D01*
X003785Y022245D02*
X004265Y022245D01*
X004265Y021245D02*
X003785Y021245D01*
X003785Y020245D02*
X004265Y020245D01*
X004265Y019245D02*
X003785Y019245D01*
X003785Y018245D02*
X004265Y018245D01*
X004265Y017245D02*
X003785Y017245D01*
X003785Y016245D02*
X004265Y016245D01*
X004265Y015245D02*
X003785Y015245D01*
X003785Y014245D02*
X004265Y014245D01*
X004265Y013245D02*
X003785Y013245D01*
X003785Y012245D02*
X004265Y012245D01*
X004265Y011245D02*
X003785Y011245D01*
X003785Y010245D02*
X004265Y010245D01*
X004265Y009245D02*
X003785Y009245D01*
X014345Y009613D02*
X014825Y009613D01*
X014825Y010613D02*
X014345Y010613D01*
X014345Y011613D02*
X014825Y011613D01*
X014825Y012613D02*
X014345Y012613D01*
X014345Y013613D02*
X014825Y013613D01*
X014825Y014613D02*
X014345Y014613D01*
X014345Y015613D02*
X014825Y015613D01*
X014825Y016613D02*
X014345Y016613D01*
X014345Y017613D02*
X014825Y017613D01*
X014821Y019198D02*
X014341Y019198D01*
X014341Y020198D02*
X014821Y020198D01*
X014821Y021198D02*
X014341Y021198D01*
X014341Y022198D02*
X014821Y022198D01*
X017341Y022198D02*
X017821Y022198D01*
X017821Y021198D02*
X017341Y021198D01*
X017341Y020198D02*
X017821Y020198D01*
X017821Y019198D02*
X017341Y019198D01*
X017345Y017613D02*
X017825Y017613D01*
X017825Y016613D02*
X017345Y016613D01*
X017345Y015613D02*
X017825Y015613D01*
X017825Y014613D02*
X017345Y014613D01*
X017345Y013613D02*
X017825Y013613D01*
X017825Y012613D02*
X017345Y012613D01*
X017345Y011613D02*
X017825Y011613D01*
X017825Y010613D02*
X017345Y010613D01*
X017345Y009613D02*
X017825Y009613D01*
D11*
X017628Y008154D03*
X019276Y007500D03*
X020276Y007500D03*
X020287Y009443D03*
X022723Y007460D03*
X023723Y007460D03*
X023725Y005378D03*
X023960Y003904D03*
X021960Y003904D03*
X020137Y003648D03*
X020725Y005378D03*
X017137Y003648D03*
X016120Y005794D03*
X016620Y006544D03*
X015620Y006544D03*
X014715Y006383D03*
X014716Y004962D03*
X014689Y003651D03*
X011689Y003651D03*
X011716Y004962D03*
X011715Y006383D03*
X010902Y008155D03*
X012902Y008155D03*
X014628Y008154D03*
X009550Y011660D03*
X009566Y013030D03*
X010888Y014016D03*
X012888Y014016D03*
X009235Y016696D03*
X007750Y014814D03*
X007566Y013030D03*
X007550Y011660D03*
X005739Y011388D03*
X005739Y013388D03*
X005750Y014814D03*
X009235Y018696D03*
X007741Y020583D03*
X005741Y020583D03*
X018809Y016600D03*
X018896Y019204D03*
X018896Y022204D03*
X018809Y013600D03*
X023287Y009443D03*
D12*
X013109Y010089D02*
X012729Y010089D01*
X012729Y012089D02*
X013109Y012089D01*
X005930Y016699D02*
X005550Y016699D01*
X005550Y018699D02*
X005930Y018699D01*
D13*
X005934Y009804D02*
X006524Y009804D01*
X006524Y008033D02*
X005934Y008033D01*
X008493Y008033D02*
X009084Y008033D01*
X009084Y009804D02*
X008493Y009804D01*
D14*
X011715Y017311D03*
D15*
X011715Y018111D03*
D16*
X017129Y004776D03*
X020129Y004776D03*
D17*
X019935Y002450D03*
X018935Y002450D03*
X017935Y002450D03*
X016935Y002450D03*
X015935Y002450D03*
X014935Y002450D03*
X013935Y002450D03*
X012935Y002450D03*
X011935Y002450D03*
X011935Y001450D03*
X012935Y001450D03*
X013935Y001450D03*
X014935Y001450D03*
X015935Y001450D03*
X016935Y001450D03*
X017935Y001450D03*
X018935Y001450D03*
X019935Y001450D03*
X020935Y001450D03*
X020935Y002450D03*
X021935Y002450D03*
X021935Y001450D03*
X022935Y001450D03*
X022935Y002450D03*
X023935Y002450D03*
X023935Y001450D03*
X021533Y014470D03*
X021533Y015550D03*
X021533Y016630D03*
X021533Y017710D03*
X021533Y018790D03*
X022653Y018250D03*
X022653Y017170D03*
X022653Y016090D03*
X022653Y015010D03*
D18*
X012111Y021275D03*
X011111Y021275D03*
X010111Y021275D03*
X010111Y022275D03*
X011111Y022275D03*
X012111Y022275D03*
D19*
X022093Y021560D03*
X022093Y011700D03*
D20*
X000380Y007439D02*
X000380Y022939D01*
X024384Y022939D01*
X024384Y000889D01*
X011160Y000889D01*
X011160Y003133D01*
X011184Y003109D01*
X019846Y003109D01*
X019940Y003203D01*
X020035Y003298D01*
X020282Y003298D01*
X020487Y003503D01*
X020487Y003793D01*
X020282Y003998D01*
X019992Y003998D01*
X019787Y003793D01*
X019787Y003503D01*
X019787Y003503D01*
X019714Y003429D01*
X017413Y003429D01*
X017487Y003503D01*
X017487Y003793D01*
X017282Y003998D01*
X016992Y003998D01*
X016787Y003793D01*
X016787Y003503D01*
X016860Y003429D01*
X014963Y003429D01*
X015039Y003506D01*
X015039Y003796D01*
X014834Y004001D01*
X014544Y004001D01*
X014339Y003796D01*
X014339Y003506D01*
X014416Y003429D01*
X011963Y003429D01*
X012039Y003506D01*
X012039Y003796D01*
X011834Y004001D01*
X011544Y004001D01*
X011410Y003866D01*
X011410Y004773D01*
X011571Y004612D01*
X011861Y004612D01*
X012066Y004817D01*
X012066Y005107D01*
X011861Y005312D01*
X011571Y005312D01*
X011410Y005151D01*
X011410Y006193D01*
X011570Y006033D01*
X011860Y006033D01*
X012065Y006238D01*
X012065Y006528D01*
X011984Y006609D01*
X014314Y006609D01*
X014380Y006543D01*
X014365Y006528D01*
X014365Y006238D01*
X014570Y006033D01*
X014860Y006033D01*
X015065Y006238D01*
X015065Y006528D01*
X014860Y006733D01*
X014642Y006733D01*
X014446Y006929D01*
X011846Y006929D01*
X010971Y007805D01*
X011047Y007805D01*
X011252Y008010D01*
X011252Y008300D01*
X011142Y008409D01*
X012661Y008409D01*
X012552Y008300D01*
X012552Y008010D01*
X012757Y007805D01*
X013047Y007805D01*
X013252Y008010D01*
X013252Y008300D01*
X013142Y008409D01*
X013646Y008409D01*
X013740Y008503D01*
X014500Y009263D01*
X014894Y009263D01*
X015023Y009316D01*
X015121Y009414D01*
X015175Y009543D01*
X015175Y009682D01*
X015121Y009811D01*
X015023Y009909D01*
X014894Y009963D01*
X014275Y009963D01*
X014146Y009909D01*
X014048Y009811D01*
X013995Y009682D01*
X013995Y009543D01*
X014048Y009414D01*
X014123Y009339D01*
X013514Y008729D01*
X010546Y008729D01*
X009489Y009787D01*
X009489Y009885D01*
X009427Y010034D01*
X009313Y010148D01*
X009164Y010210D01*
X008412Y010210D01*
X008263Y010148D01*
X008149Y010034D01*
X008088Y009885D01*
X008088Y009788D01*
X007446Y010429D01*
X005046Y010429D01*
X004495Y010980D01*
X004562Y011047D01*
X004615Y011175D01*
X004615Y011314D01*
X004562Y011443D01*
X004463Y011542D01*
X004334Y011595D01*
X003715Y011595D01*
X003587Y011542D01*
X003488Y011443D01*
X003435Y011314D01*
X003435Y011175D01*
X003488Y011047D01*
X003587Y010948D01*
X003715Y010895D01*
X004128Y010895D01*
X004820Y010203D01*
X004914Y010109D01*
X005666Y010109D01*
X005590Y010034D01*
X005529Y009885D01*
X005529Y009724D01*
X005590Y009575D01*
X005704Y009461D01*
X005853Y009399D01*
X006605Y009399D01*
X006754Y009461D01*
X006868Y009575D01*
X006930Y009724D01*
X006930Y009885D01*
X006868Y010034D01*
X006793Y010109D01*
X007314Y010109D01*
X008985Y008438D01*
X008412Y008438D01*
X006605Y008438D01*
X005853Y008438D01*
X005038Y008438D01*
X005136Y008339D02*
X005667Y008339D01*
X005704Y008376D02*
X005590Y008262D01*
X005577Y008229D01*
X005246Y008229D01*
X004495Y008980D01*
X004562Y009047D01*
X004615Y009175D01*
X004615Y009314D01*
X004562Y009443D01*
X004463Y009542D01*
X004334Y009595D01*
X003715Y009595D01*
X003587Y009542D01*
X003488Y009443D01*
X003435Y009314D01*
X003435Y009175D01*
X003488Y009047D01*
X003587Y008948D01*
X003715Y008895D01*
X004128Y008895D01*
X005020Y008003D01*
X005114Y007909D01*
X005546Y007909D01*
X005590Y007803D01*
X005704Y007689D01*
X005853Y007627D01*
X006605Y007627D01*
X006754Y007689D01*
X006868Y007803D01*
X006930Y007952D01*
X006930Y008113D01*
X006868Y008262D01*
X006754Y008376D01*
X006605Y008438D01*
X006791Y008339D02*
X008226Y008339D01*
X008263Y008376D02*
X008149Y008262D01*
X008088Y008113D01*
X008088Y007952D01*
X008149Y007803D01*
X008263Y007689D01*
X008412Y007627D01*
X009164Y007627D01*
X009313Y007689D01*
X009427Y007803D01*
X009430Y007809D01*
X010144Y007809D01*
X010514Y007439D01*
X000380Y007439D01*
X000380Y007453D02*
X010500Y007453D01*
X010402Y007551D02*
X000380Y007551D01*
X000380Y007650D02*
X005799Y007650D01*
X005645Y007748D02*
X000380Y007748D01*
X000380Y007847D02*
X005572Y007847D01*
X005581Y008241D02*
X005235Y008241D01*
X005180Y008069D02*
X006180Y008069D01*
X006229Y008033D01*
X005853Y008438D02*
X005704Y008376D01*
X005180Y008069D02*
X004080Y009169D01*
X004025Y009245D01*
X004191Y008832D02*
X000380Y008832D01*
X000380Y008930D02*
X000629Y008930D01*
X000587Y008948D02*
X000715Y008895D01*
X001334Y008895D01*
X001463Y008948D01*
X001562Y009047D01*
X001615Y009175D01*
X001615Y009314D01*
X001562Y009443D01*
X001463Y009542D01*
X001334Y009595D01*
X000715Y009595D01*
X000587Y009542D01*
X000488Y009443D01*
X000435Y009314D01*
X000435Y009175D01*
X000488Y009047D01*
X000587Y008948D01*
X000506Y009029D02*
X000380Y009029D01*
X000380Y009127D02*
X000455Y009127D01*
X000435Y009226D02*
X000380Y009226D01*
X000380Y009324D02*
X000439Y009324D01*
X000480Y009423D02*
X000380Y009423D01*
X000380Y009521D02*
X000566Y009521D01*
X000380Y009620D02*
X005572Y009620D01*
X005531Y009718D02*
X000380Y009718D01*
X000380Y009817D02*
X005529Y009817D01*
X005541Y009915D02*
X004384Y009915D01*
X004334Y009895D02*
X004463Y009948D01*
X004562Y010047D01*
X004615Y010175D01*
X004615Y010314D01*
X004562Y010443D01*
X004463Y010542D01*
X004334Y010595D01*
X003715Y010595D01*
X003587Y010542D01*
X003488Y010443D01*
X003435Y010314D01*
X003435Y010175D01*
X003488Y010047D01*
X003587Y009948D01*
X003715Y009895D01*
X004334Y009895D01*
X004529Y010014D02*
X005582Y010014D01*
X005644Y009521D02*
X004483Y009521D01*
X004570Y009423D02*
X005796Y009423D01*
X006662Y009423D02*
X008000Y009423D01*
X007902Y009521D02*
X006815Y009521D01*
X006887Y009620D02*
X007803Y009620D01*
X007705Y009718D02*
X006928Y009718D01*
X006930Y009817D02*
X007606Y009817D01*
X007508Y009915D02*
X006917Y009915D01*
X006876Y010014D02*
X007409Y010014D01*
X007380Y010269D02*
X009180Y008469D01*
X010080Y008469D01*
X011780Y006769D01*
X014380Y006769D01*
X014680Y006469D01*
X014715Y006383D01*
X015065Y006369D02*
X015299Y006369D01*
X015270Y006399D02*
X015475Y006194D01*
X015765Y006194D01*
X015970Y006399D01*
X015970Y006689D01*
X015765Y006894D01*
X015475Y006894D01*
X015270Y006689D01*
X015270Y006399D01*
X015270Y006468D02*
X015065Y006468D01*
X015027Y006566D02*
X015270Y006566D01*
X015270Y006665D02*
X014929Y006665D01*
X014612Y006763D02*
X015344Y006763D01*
X015442Y006862D02*
X014514Y006862D01*
X014357Y006566D02*
X012027Y006566D01*
X012065Y006468D02*
X014365Y006468D01*
X014365Y006369D02*
X012065Y006369D01*
X012065Y006271D02*
X014365Y006271D01*
X014431Y006172D02*
X011999Y006172D01*
X011901Y006074D02*
X014530Y006074D01*
X014901Y006074D02*
X015904Y006074D01*
X015975Y006144D02*
X015770Y005939D01*
X015770Y005649D01*
X015975Y005444D01*
X016265Y005444D01*
X016470Y005649D01*
X016470Y005939D01*
X016265Y006144D01*
X015975Y006144D01*
X015841Y006271D02*
X016398Y006271D01*
X016475Y006194D02*
X016765Y006194D01*
X016970Y006399D01*
X016970Y006689D01*
X016765Y006894D01*
X016475Y006894D01*
X016270Y006689D01*
X016270Y006399D01*
X016475Y006194D01*
X016335Y006074D02*
X024384Y006074D01*
X024384Y006172D02*
X014999Y006172D01*
X015065Y006271D02*
X015398Y006271D01*
X015806Y005975D02*
X011410Y005975D01*
X011410Y005877D02*
X015770Y005877D01*
X015770Y005778D02*
X011410Y005778D01*
X011410Y005680D02*
X015770Y005680D01*
X015837Y005581D02*
X011410Y005581D01*
X011410Y005483D02*
X015936Y005483D01*
X016303Y005483D02*
X020375Y005483D01*
X020375Y005523D02*
X020375Y005329D01*
X017414Y005329D01*
X017227Y005143D01*
X017204Y005152D01*
X017055Y005152D01*
X016917Y005095D01*
X016811Y004989D01*
X016754Y004851D01*
X016754Y004701D01*
X016811Y004563D01*
X016845Y004529D01*
X015346Y004529D01*
X015062Y004813D01*
X015066Y004817D01*
X015066Y005107D01*
X014861Y005312D01*
X014571Y005312D01*
X014366Y005107D01*
X014366Y004817D01*
X014571Y004612D01*
X014811Y004612D01*
X015214Y004209D01*
X021414Y004209D01*
X021610Y004013D01*
X021610Y003759D01*
X021815Y003554D01*
X022105Y003554D01*
X022310Y003759D01*
X022310Y004049D01*
X022105Y004254D01*
X021822Y004254D01*
X021640Y004436D01*
X021546Y004529D01*
X020414Y004529D01*
X020448Y004563D01*
X020505Y004701D01*
X020505Y004851D01*
X020448Y004989D01*
X020428Y005009D01*
X020546Y005009D01*
X020573Y005036D01*
X020580Y005028D01*
X020870Y005028D01*
X021051Y005209D01*
X022414Y005209D01*
X023610Y004013D01*
X023610Y003759D01*
X023815Y003554D01*
X024105Y003554D01*
X024310Y003759D01*
X024310Y004049D01*
X024105Y004254D01*
X023822Y004254D01*
X022640Y005436D01*
X022546Y005529D01*
X021069Y005529D01*
X020870Y005728D01*
X020580Y005728D01*
X020375Y005523D01*
X020433Y005581D02*
X016402Y005581D01*
X016470Y005680D02*
X020531Y005680D01*
X020375Y005384D02*
X011410Y005384D01*
X011410Y005286D02*
X011545Y005286D01*
X011446Y005187D02*
X011410Y005187D01*
X011888Y005286D02*
X014545Y005286D01*
X014446Y005187D02*
X011986Y005187D01*
X012066Y005089D02*
X014366Y005089D01*
X014366Y004990D02*
X012066Y004990D01*
X012066Y004892D02*
X014366Y004892D01*
X014390Y004793D02*
X012042Y004793D01*
X011944Y004695D02*
X014489Y004695D01*
X014780Y004869D02*
X014716Y004962D01*
X014780Y004869D02*
X015280Y004369D01*
X021480Y004369D01*
X021880Y003969D01*
X021960Y003904D01*
X021610Y003907D02*
X020373Y003907D01*
X020471Y003808D02*
X021610Y003808D01*
X021659Y003710D02*
X020487Y003710D01*
X020487Y003611D02*
X021758Y003611D01*
X022163Y003611D02*
X023758Y003611D01*
X023659Y003710D02*
X022261Y003710D01*
X022310Y003808D02*
X023610Y003808D01*
X023610Y003907D02*
X022310Y003907D01*
X022310Y004005D02*
X023610Y004005D01*
X023519Y004104D02*
X022255Y004104D01*
X022157Y004202D02*
X023421Y004202D01*
X023322Y004301D02*
X021775Y004301D01*
X021676Y004399D02*
X023224Y004399D01*
X023125Y004498D02*
X021578Y004498D01*
X021421Y004202D02*
X011410Y004202D01*
X011410Y004104D02*
X021519Y004104D01*
X021610Y004005D02*
X011410Y004005D01*
X011410Y003907D02*
X011451Y003907D01*
X011410Y004301D02*
X015122Y004301D01*
X015024Y004399D02*
X011410Y004399D01*
X011410Y004498D02*
X014925Y004498D01*
X014827Y004596D02*
X011410Y004596D01*
X011410Y004695D02*
X011489Y004695D01*
X011928Y003907D02*
X014451Y003907D01*
X014352Y003808D02*
X012027Y003808D01*
X012039Y003710D02*
X014339Y003710D01*
X014339Y003611D02*
X012039Y003611D01*
X012039Y003513D02*
X014339Y003513D01*
X014105Y002860D02*
X013765Y002860D01*
X013525Y002620D01*
X013525Y002280D01*
X013765Y002040D01*
X014105Y002040D01*
X014345Y002280D01*
X014345Y002620D01*
X014105Y002860D01*
X014142Y002823D02*
X014729Y002823D01*
X014765Y002860D02*
X014525Y002620D01*
X014525Y002280D01*
X014765Y002040D01*
X015105Y002040D01*
X015345Y002280D01*
X015345Y002620D01*
X015105Y002860D01*
X014765Y002860D01*
X014630Y002725D02*
X014240Y002725D01*
X014339Y002626D02*
X014532Y002626D01*
X014525Y002528D02*
X014345Y002528D01*
X014345Y002429D02*
X014525Y002429D01*
X014525Y002331D02*
X014345Y002331D01*
X014297Y002232D02*
X014573Y002232D01*
X014672Y002134D02*
X014199Y002134D01*
X014105Y001860D02*
X013765Y001860D01*
X013525Y001620D01*
X013525Y001280D01*
X013765Y001040D01*
X014105Y001040D01*
X014345Y001280D01*
X014345Y001620D01*
X014105Y001860D01*
X014127Y001838D02*
X014744Y001838D01*
X014765Y001860D02*
X014525Y001620D01*
X014525Y001280D01*
X014765Y001040D01*
X015105Y001040D01*
X015345Y001280D01*
X015345Y001620D01*
X015105Y001860D01*
X014765Y001860D01*
X014645Y001740D02*
X014225Y001740D01*
X014324Y001641D02*
X014547Y001641D01*
X014525Y001543D02*
X014345Y001543D01*
X014345Y001444D02*
X014525Y001444D01*
X014525Y001346D02*
X014345Y001346D01*
X014312Y001247D02*
X014558Y001247D01*
X014657Y001149D02*
X014214Y001149D01*
X014115Y001050D02*
X014755Y001050D01*
X015115Y001050D02*
X015755Y001050D01*
X015765Y001040D02*
X016105Y001040D01*
X016345Y001280D01*
X016345Y001620D01*
X016105Y001860D01*
X015765Y001860D01*
X015525Y001620D01*
X015525Y001280D01*
X015765Y001040D01*
X015657Y001149D02*
X015214Y001149D01*
X015312Y001247D02*
X015558Y001247D01*
X015525Y001346D02*
X015345Y001346D01*
X015345Y001444D02*
X015525Y001444D01*
X015525Y001543D02*
X015345Y001543D01*
X015324Y001641D02*
X015547Y001641D01*
X015645Y001740D02*
X015225Y001740D01*
X015127Y001838D02*
X015744Y001838D01*
X015765Y002040D02*
X016105Y002040D01*
X016345Y002280D01*
X016345Y002620D01*
X016105Y002860D01*
X015765Y002860D01*
X015525Y002620D01*
X015525Y002280D01*
X015765Y002040D01*
X015672Y002134D02*
X015199Y002134D01*
X015297Y002232D02*
X015573Y002232D01*
X015525Y002331D02*
X015345Y002331D01*
X015345Y002429D02*
X015525Y002429D01*
X015525Y002528D02*
X015345Y002528D01*
X015339Y002626D02*
X015532Y002626D01*
X015630Y002725D02*
X015240Y002725D01*
X015142Y002823D02*
X015729Y002823D01*
X016142Y002823D02*
X016729Y002823D01*
X016765Y002860D02*
X016525Y002620D01*
X016525Y002280D01*
X016765Y002040D01*
X017105Y002040D01*
X017345Y002280D01*
X017345Y002620D01*
X017105Y002860D01*
X016765Y002860D01*
X016630Y002725D02*
X016240Y002725D01*
X016339Y002626D02*
X016532Y002626D01*
X016525Y002528D02*
X016345Y002528D01*
X016345Y002429D02*
X016525Y002429D01*
X016525Y002331D02*
X016345Y002331D01*
X016297Y002232D02*
X016573Y002232D01*
X016672Y002134D02*
X016199Y002134D01*
X016127Y001838D02*
X016744Y001838D01*
X016765Y001860D02*
X016525Y001620D01*
X016525Y001280D01*
X016765Y001040D01*
X017105Y001040D01*
X017345Y001280D01*
X017345Y001620D01*
X017105Y001860D01*
X016765Y001860D01*
X016645Y001740D02*
X016225Y001740D01*
X016324Y001641D02*
X016547Y001641D01*
X016525Y001543D02*
X016345Y001543D01*
X016345Y001444D02*
X016525Y001444D01*
X016525Y001346D02*
X016345Y001346D01*
X016312Y001247D02*
X016558Y001247D01*
X016657Y001149D02*
X016214Y001149D01*
X016115Y001050D02*
X016755Y001050D01*
X017115Y001050D02*
X017755Y001050D01*
X017765Y001040D02*
X018105Y001040D01*
X018345Y001280D01*
X018345Y001620D01*
X018105Y001860D01*
X017765Y001860D01*
X017525Y001620D01*
X017525Y001280D01*
X017765Y001040D01*
X017657Y001149D02*
X017214Y001149D01*
X017312Y001247D02*
X017558Y001247D01*
X017525Y001346D02*
X017345Y001346D01*
X017345Y001444D02*
X017525Y001444D01*
X017525Y001543D02*
X017345Y001543D01*
X017324Y001641D02*
X017547Y001641D01*
X017645Y001740D02*
X017225Y001740D01*
X017127Y001838D02*
X017744Y001838D01*
X017765Y002040D02*
X018105Y002040D01*
X018345Y002280D01*
X018345Y002620D01*
X018105Y002860D01*
X017765Y002860D01*
X017525Y002620D01*
X017525Y002280D01*
X017765Y002040D01*
X017672Y002134D02*
X017199Y002134D01*
X017297Y002232D02*
X017573Y002232D01*
X017525Y002331D02*
X017345Y002331D01*
X017345Y002429D02*
X017525Y002429D01*
X017525Y002528D02*
X017345Y002528D01*
X017339Y002626D02*
X017532Y002626D01*
X017630Y002725D02*
X017240Y002725D01*
X017142Y002823D02*
X017729Y002823D01*
X018142Y002823D02*
X018729Y002823D01*
X018765Y002860D02*
X018525Y002620D01*
X018525Y002280D01*
X018765Y002040D01*
X019105Y002040D01*
X019345Y002280D01*
X019345Y002620D01*
X019105Y002860D01*
X018765Y002860D01*
X018630Y002725D02*
X018240Y002725D01*
X018339Y002626D02*
X018532Y002626D01*
X018525Y002528D02*
X018345Y002528D01*
X018345Y002429D02*
X018525Y002429D01*
X018525Y002331D02*
X018345Y002331D01*
X018297Y002232D02*
X018573Y002232D01*
X018672Y002134D02*
X018199Y002134D01*
X018127Y001838D02*
X018744Y001838D01*
X018765Y001860D02*
X018525Y001620D01*
X018525Y001280D01*
X018765Y001040D01*
X019105Y001040D01*
X019345Y001280D01*
X019345Y001620D01*
X019105Y001860D01*
X018765Y001860D01*
X018645Y001740D02*
X018225Y001740D01*
X018324Y001641D02*
X018547Y001641D01*
X018525Y001543D02*
X018345Y001543D01*
X018345Y001444D02*
X018525Y001444D01*
X018525Y001346D02*
X018345Y001346D01*
X018312Y001247D02*
X018558Y001247D01*
X018657Y001149D02*
X018214Y001149D01*
X018115Y001050D02*
X018755Y001050D01*
X019115Y001050D02*
X019755Y001050D01*
X019765Y001040D02*
X020105Y001040D01*
X020345Y001280D01*
X020345Y001620D01*
X020105Y001860D01*
X019765Y001860D01*
X019525Y001620D01*
X019525Y001280D01*
X019765Y001040D01*
X019657Y001149D02*
X019214Y001149D01*
X019312Y001247D02*
X019558Y001247D01*
X019525Y001346D02*
X019345Y001346D01*
X019345Y001444D02*
X019525Y001444D01*
X019525Y001543D02*
X019345Y001543D01*
X019324Y001641D02*
X019547Y001641D01*
X019645Y001740D02*
X019225Y001740D01*
X019127Y001838D02*
X019744Y001838D01*
X019765Y002040D02*
X020105Y002040D01*
X020345Y002280D01*
X020345Y002620D01*
X020105Y002860D01*
X019765Y002860D01*
X019525Y002620D01*
X019525Y002280D01*
X019765Y002040D01*
X019672Y002134D02*
X019199Y002134D01*
X019297Y002232D02*
X019573Y002232D01*
X019525Y002331D02*
X019345Y002331D01*
X019345Y002429D02*
X019525Y002429D01*
X019525Y002528D02*
X019345Y002528D01*
X019339Y002626D02*
X019532Y002626D01*
X019630Y002725D02*
X019240Y002725D01*
X019142Y002823D02*
X019729Y002823D01*
X019856Y003119D02*
X024384Y003119D01*
X024384Y003217D02*
X019954Y003217D01*
X019780Y003269D02*
X011250Y003269D01*
X011250Y006929D01*
X010210Y007969D01*
X008880Y007969D01*
X008788Y008033D01*
X008887Y008536D02*
X004939Y008536D01*
X004841Y008635D02*
X008788Y008635D01*
X008690Y008733D02*
X004742Y008733D01*
X004644Y008832D02*
X008591Y008832D01*
X008493Y008930D02*
X004545Y008930D01*
X004544Y009029D02*
X008394Y009029D01*
X008296Y009127D02*
X004595Y009127D01*
X004615Y009226D02*
X008197Y009226D01*
X008099Y009324D02*
X004611Y009324D01*
X004290Y008733D02*
X000380Y008733D01*
X000380Y008635D02*
X004388Y008635D01*
X004487Y008536D02*
X000380Y008536D01*
X000380Y008438D02*
X004585Y008438D01*
X004684Y008339D02*
X000380Y008339D01*
X000380Y008241D02*
X004782Y008241D01*
X004881Y008142D02*
X000380Y008142D01*
X000380Y008044D02*
X004979Y008044D01*
X005078Y007945D02*
X000380Y007945D01*
X001420Y008930D02*
X003629Y008930D01*
X003506Y009029D02*
X001544Y009029D01*
X001595Y009127D02*
X003455Y009127D01*
X003435Y009226D02*
X001615Y009226D01*
X001611Y009324D02*
X003439Y009324D01*
X003480Y009423D02*
X001570Y009423D01*
X001483Y009521D02*
X003566Y009521D01*
X003666Y009915D02*
X001384Y009915D01*
X001334Y009895D02*
X001463Y009948D01*
X001562Y010047D01*
X001615Y010175D01*
X001615Y010314D01*
X001562Y010443D01*
X001463Y010542D01*
X001334Y010595D01*
X000715Y010595D01*
X000587Y010542D01*
X000488Y010443D01*
X000435Y010314D01*
X000435Y010175D01*
X000488Y010047D01*
X000587Y009948D01*
X000715Y009895D01*
X001334Y009895D01*
X001529Y010014D02*
X003521Y010014D01*
X003461Y010112D02*
X001589Y010112D01*
X001615Y010211D02*
X003435Y010211D01*
X003435Y010309D02*
X001615Y010309D01*
X001576Y010408D02*
X003473Y010408D01*
X003551Y010506D02*
X001498Y010506D01*
X001334Y010895D02*
X001463Y010948D01*
X001562Y011047D01*
X001615Y011175D01*
X001615Y011314D01*
X001562Y011443D01*
X001463Y011542D01*
X001334Y011595D01*
X000715Y011595D01*
X000587Y011542D01*
X000488Y011443D01*
X000435Y011314D01*
X000435Y011175D01*
X000488Y011047D01*
X000587Y010948D01*
X000715Y010895D01*
X001334Y010895D01*
X001348Y010900D02*
X003702Y010900D01*
X003536Y010999D02*
X001514Y010999D01*
X001583Y011097D02*
X003467Y011097D01*
X003435Y011196D02*
X001615Y011196D01*
X001615Y011294D02*
X003435Y011294D01*
X003467Y011393D02*
X001582Y011393D01*
X001513Y011491D02*
X003536Y011491D01*
X003703Y011590D02*
X001346Y011590D01*
X001334Y011895D02*
X001463Y011948D01*
X001562Y012047D01*
X001615Y012175D01*
X001615Y012314D01*
X001562Y012443D01*
X001463Y012542D01*
X001334Y012595D01*
X000715Y012595D01*
X000587Y012542D01*
X000488Y012443D01*
X000435Y012314D01*
X000435Y012175D01*
X000488Y012047D01*
X000587Y011948D01*
X000715Y011895D01*
X001334Y011895D01*
X001499Y011984D02*
X003551Y011984D01*
X003587Y011948D02*
X003715Y011895D01*
X004334Y011895D01*
X004463Y011948D01*
X004562Y012047D01*
X004615Y012175D01*
X004615Y012314D01*
X004562Y012443D01*
X004463Y012542D01*
X004334Y012595D01*
X003715Y012595D01*
X003587Y012542D01*
X003488Y012443D01*
X003435Y012314D01*
X003435Y012175D01*
X003488Y012047D01*
X003587Y011948D01*
X003473Y012082D02*
X001576Y012082D01*
X001615Y012181D02*
X003435Y012181D01*
X003435Y012279D02*
X001615Y012279D01*
X001589Y012378D02*
X003461Y012378D01*
X003521Y012476D02*
X001528Y012476D01*
X001383Y012575D02*
X003667Y012575D01*
X003715Y012895D02*
X003587Y012948D01*
X003488Y013047D01*
X003435Y013175D01*
X003435Y013314D01*
X003488Y013443D01*
X003587Y013542D01*
X003715Y013595D01*
X004334Y013595D01*
X004463Y013542D01*
X004562Y013443D01*
X004615Y013314D01*
X004615Y013175D01*
X004562Y013047D01*
X004463Y012948D01*
X004334Y012895D01*
X003715Y012895D01*
X003566Y012969D02*
X001484Y012969D01*
X001463Y012948D02*
X001562Y013047D01*
X001615Y013175D01*
X001615Y013314D01*
X001562Y013443D01*
X001463Y013542D01*
X001334Y013595D01*
X000715Y013595D01*
X000587Y013542D01*
X000488Y013443D01*
X000435Y013314D01*
X000435Y013175D01*
X000488Y013047D01*
X000587Y012948D01*
X000715Y012895D01*
X001334Y012895D01*
X001463Y012948D01*
X001570Y013067D02*
X003479Y013067D01*
X003439Y013166D02*
X001611Y013166D01*
X001615Y013264D02*
X003435Y013264D01*
X003455Y013363D02*
X001595Y013363D01*
X001543Y013461D02*
X003506Y013461D01*
X003631Y013560D02*
X001419Y013560D01*
X001334Y013895D02*
X001463Y013948D01*
X001562Y014047D01*
X001615Y014175D01*
X001615Y014314D01*
X001562Y014443D01*
X001463Y014542D01*
X001334Y014595D01*
X000715Y014595D01*
X000587Y014542D01*
X000488Y014443D01*
X000435Y014314D01*
X000435Y014175D01*
X000488Y014047D01*
X000587Y013948D01*
X000715Y013895D01*
X001334Y013895D01*
X001469Y013954D02*
X003581Y013954D01*
X003587Y013948D02*
X003715Y013895D01*
X004334Y013895D01*
X004463Y013948D01*
X004562Y014047D01*
X004615Y014175D01*
X004615Y014314D01*
X004562Y014443D01*
X004463Y014542D01*
X004334Y014595D01*
X003715Y014595D01*
X003587Y014542D01*
X003488Y014443D01*
X003435Y014314D01*
X003435Y014175D01*
X003488Y014047D01*
X003587Y013948D01*
X003486Y014052D02*
X001564Y014052D01*
X001605Y014151D02*
X003445Y014151D01*
X003435Y014249D02*
X001615Y014249D01*
X001601Y014348D02*
X003449Y014348D01*
X003491Y014446D02*
X001558Y014446D01*
X001455Y014545D02*
X003595Y014545D01*
X003715Y014895D02*
X003587Y014948D01*
X003488Y015047D01*
X003435Y015175D01*
X003435Y015314D01*
X003488Y015443D01*
X003587Y015542D01*
X003715Y015595D01*
X004334Y015595D01*
X004463Y015542D01*
X004562Y015443D01*
X004615Y015314D01*
X004615Y015175D01*
X004562Y015047D01*
X004495Y014980D01*
X004946Y014529D01*
X005540Y014529D01*
X005400Y014669D01*
X005400Y014959D01*
X005451Y015009D01*
X005014Y015009D01*
X004920Y015103D01*
X004128Y015895D01*
X003715Y015895D01*
X003587Y015948D01*
X003525Y016009D01*
X002046Y016009D01*
X001521Y015484D01*
X001562Y015443D01*
X001615Y015314D01*
X001615Y015175D01*
X001562Y015047D01*
X001463Y014948D01*
X001334Y014895D01*
X000715Y014895D01*
X000587Y014948D01*
X000488Y015047D01*
X000435Y015175D01*
X000435Y015314D01*
X000488Y015443D01*
X000587Y015542D01*
X000715Y015595D01*
X001179Y015595D01*
X001820Y016236D01*
X001820Y016236D01*
X001914Y016329D01*
X003441Y016329D01*
X003488Y016443D01*
X003587Y016542D01*
X003715Y016595D01*
X004334Y016595D01*
X004463Y016542D01*
X004562Y016443D01*
X004615Y016314D01*
X004615Y016175D01*
X004562Y016047D01*
X004495Y015980D01*
X005146Y015329D01*
X007446Y015329D01*
X007612Y015164D01*
X007895Y015164D01*
X008100Y014959D01*
X008100Y014675D01*
X009408Y013367D01*
X009421Y013380D01*
X009711Y013380D01*
X009862Y013229D01*
X009914Y013229D01*
X010547Y013862D01*
X010538Y013871D01*
X010538Y014161D01*
X010743Y014366D01*
X011033Y014366D01*
X011238Y014161D01*
X011238Y013871D01*
X011033Y013666D01*
X010803Y013666D01*
X010140Y013003D01*
X010046Y012909D01*
X009916Y012909D01*
X009916Y012885D01*
X009711Y012680D01*
X009421Y012680D01*
X009216Y012885D01*
X009216Y013107D01*
X007859Y014464D01*
X007605Y014464D01*
X007400Y014669D01*
X007400Y014923D01*
X007314Y015009D01*
X006050Y015009D01*
X006100Y014959D01*
X006100Y014669D01*
X005961Y014529D01*
X006246Y014529D01*
X006340Y014436D01*
X007408Y013367D01*
X007421Y013380D01*
X007711Y013380D01*
X007916Y013175D01*
X007916Y012885D01*
X007711Y012680D01*
X007421Y012680D01*
X007216Y012885D01*
X007216Y013107D01*
X006114Y014209D01*
X004814Y014209D01*
X004128Y014895D01*
X003715Y014895D01*
X003609Y014939D02*
X001441Y014939D01*
X001552Y015037D02*
X003497Y015037D01*
X003451Y015136D02*
X001599Y015136D01*
X001615Y015234D02*
X003435Y015234D01*
X003442Y015333D02*
X001607Y015333D01*
X001566Y015431D02*
X003483Y015431D01*
X003575Y015530D02*
X001567Y015530D01*
X001665Y015628D02*
X004395Y015628D01*
X004475Y015530D02*
X004493Y015530D01*
X004566Y015431D02*
X004592Y015431D01*
X004607Y015333D02*
X004690Y015333D01*
X004615Y015234D02*
X004789Y015234D01*
X004887Y015136D02*
X004599Y015136D01*
X004552Y015037D02*
X004986Y015037D01*
X005080Y015169D02*
X007380Y015169D01*
X007680Y014869D01*
X007750Y014814D01*
X007780Y014769D01*
X009480Y013069D01*
X009566Y013030D01*
X009580Y013069D01*
X009980Y013069D01*
X010880Y013969D01*
X010888Y014016D01*
X010627Y014249D02*
X008526Y014249D01*
X008625Y014151D02*
X010538Y014151D01*
X010538Y014052D02*
X008723Y014052D01*
X008822Y013954D02*
X010538Y013954D01*
X010540Y013855D02*
X008920Y013855D01*
X009019Y013757D02*
X010441Y013757D01*
X010343Y013658D02*
X009117Y013658D01*
X009216Y013560D02*
X010244Y013560D01*
X010146Y013461D02*
X009314Y013461D01*
X009059Y013264D02*
X007827Y013264D01*
X007916Y013166D02*
X009157Y013166D01*
X009216Y013067D02*
X007916Y013067D01*
X007916Y012969D02*
X009216Y012969D01*
X009231Y012870D02*
X007901Y012870D01*
X007803Y012772D02*
X009330Y012772D01*
X009803Y012772D02*
X014032Y012772D01*
X014048Y012811D02*
X013995Y012682D01*
X013995Y012543D01*
X014048Y012414D01*
X014146Y012316D01*
X014275Y012263D01*
X014894Y012263D01*
X015023Y012316D01*
X015121Y012414D01*
X015175Y012543D01*
X015175Y012682D01*
X015121Y012811D01*
X015023Y012909D01*
X014894Y012963D01*
X014275Y012963D01*
X014146Y012909D01*
X014048Y012811D01*
X014107Y012870D02*
X009901Y012870D01*
X010106Y012969D02*
X017054Y012969D01*
X017130Y012893D02*
X017048Y012811D01*
X016995Y012682D01*
X016995Y012543D01*
X017048Y012414D01*
X017146Y012316D01*
X017275Y012263D01*
X017894Y012263D01*
X018023Y012316D01*
X018121Y012414D01*
X018175Y012543D01*
X018175Y012682D01*
X018121Y012811D01*
X018023Y012909D01*
X017894Y012963D01*
X017513Y012963D01*
X017169Y013307D01*
X017275Y013263D01*
X017894Y013263D01*
X018023Y013316D01*
X018121Y013414D01*
X018175Y013543D01*
X018175Y013682D01*
X018121Y013811D01*
X018023Y013909D01*
X017894Y013963D01*
X017275Y013963D01*
X017146Y013909D01*
X017048Y013811D01*
X016995Y013682D01*
X016995Y013543D01*
X017038Y013437D01*
X015240Y015236D01*
X015146Y015329D01*
X015036Y015329D01*
X015121Y015414D01*
X015175Y015543D01*
X015175Y015682D01*
X015122Y015809D01*
X017047Y015809D01*
X016995Y015682D01*
X016995Y015543D01*
X017048Y015414D01*
X017146Y015316D01*
X017275Y015263D01*
X017894Y015263D01*
X018023Y015316D01*
X018121Y015414D01*
X018175Y015543D01*
X018175Y015682D01*
X018121Y015811D01*
X018023Y015909D01*
X017894Y015963D01*
X017513Y015963D01*
X017346Y016129D01*
X007846Y016129D01*
X007725Y016251D01*
X007725Y016318D01*
X007688Y016408D01*
X007619Y016477D01*
X007529Y016514D01*
X007431Y016514D01*
X007341Y016477D01*
X007340Y016476D01*
X007340Y019509D01*
X009546Y019509D01*
X010924Y020887D01*
X011026Y020845D01*
X011197Y020845D01*
X011355Y020910D01*
X011476Y021031D01*
X011541Y021189D01*
X011541Y021360D01*
X011476Y021518D01*
X011385Y021609D01*
X011838Y021609D01*
X011747Y021518D01*
X011681Y021360D01*
X011681Y021189D01*
X011747Y021031D01*
X011868Y020910D01*
X012026Y020845D01*
X012197Y020845D01*
X012355Y020910D01*
X012476Y021031D01*
X012541Y021189D01*
X012541Y021282D01*
X013214Y020609D01*
X014714Y020609D01*
X014775Y020548D01*
X014271Y020548D01*
X014143Y020494D01*
X014044Y020396D01*
X013991Y020267D01*
X013991Y020128D01*
X014044Y019999D01*
X014114Y019930D01*
X012514Y018329D01*
X012006Y018329D01*
X011919Y018416D01*
X011787Y018471D01*
X011643Y018471D01*
X011511Y018416D01*
X011424Y018329D01*
X009846Y018329D01*
X009585Y018590D01*
X009585Y018841D01*
X009380Y019046D01*
X009090Y019046D01*
X008885Y018841D01*
X008885Y018551D01*
X009090Y018346D01*
X009377Y018346D01*
X009620Y018103D01*
X009714Y018009D01*
X011368Y018009D01*
X011410Y017907D01*
X011511Y017806D01*
X011643Y017751D01*
X011787Y017751D01*
X011919Y017806D01*
X012020Y017907D01*
X012062Y018009D01*
X012646Y018009D01*
X012740Y018103D01*
X014485Y019848D01*
X014891Y019848D01*
X015019Y019901D01*
X015071Y019952D01*
X017130Y017893D01*
X017048Y017811D01*
X016995Y017682D01*
X016995Y017543D01*
X017048Y017414D01*
X017146Y017316D01*
X017275Y017263D01*
X017894Y017263D01*
X018023Y017316D01*
X018121Y017414D01*
X018175Y017543D01*
X018175Y017682D01*
X018121Y017811D01*
X018023Y017909D01*
X017894Y017963D01*
X017513Y017963D01*
X016866Y018609D01*
X019020Y018609D01*
X019020Y016883D01*
X018954Y016950D01*
X018664Y016950D01*
X018459Y016745D01*
X018459Y016729D01*
X018155Y016729D01*
X018121Y016811D01*
X018023Y016909D01*
X018623Y016909D01*
X018524Y016810D02*
X018122Y016810D01*
X018023Y016909D02*
X017894Y016963D01*
X017275Y016963D01*
X017146Y016909D01*
X015023Y016909D01*
X014894Y016963D01*
X014275Y016963D01*
X014146Y016909D01*
X009646Y016909D01*
X009582Y016845D02*
X009846Y017109D01*
X011408Y017109D01*
X011566Y016951D01*
X011864Y016951D01*
X012075Y017162D01*
X012075Y017460D01*
X011864Y017671D01*
X011566Y017671D01*
X011355Y017460D01*
X011355Y017429D01*
X009714Y017429D01*
X009620Y017336D01*
X009330Y017046D01*
X009090Y017046D01*
X008885Y016841D01*
X008885Y016551D01*
X009090Y016346D01*
X009380Y016346D01*
X009585Y016551D01*
X009585Y016841D01*
X009582Y016845D01*
X009585Y016810D02*
X014048Y016810D01*
X014048Y016811D02*
X013995Y016682D01*
X013995Y016543D01*
X014048Y016414D01*
X014146Y016316D01*
X014275Y016263D01*
X014894Y016263D01*
X015023Y016316D01*
X015121Y016414D01*
X015175Y016543D01*
X015175Y016682D01*
X015121Y016811D01*
X015023Y016909D01*
X015122Y016810D02*
X017048Y016810D01*
X017048Y016811D02*
X016995Y016682D01*
X016995Y016543D01*
X017048Y016414D01*
X017146Y016316D01*
X017275Y016263D01*
X017894Y016263D01*
X018023Y016316D01*
X018116Y016409D01*
X018504Y016409D01*
X018664Y016250D01*
X018954Y016250D01*
X019020Y016316D01*
X019020Y016236D01*
X017747Y014963D01*
X017275Y014963D01*
X017146Y014909D01*
X017048Y014811D01*
X016995Y014682D01*
X016995Y014543D01*
X017048Y014414D01*
X017146Y014316D01*
X017275Y014263D01*
X017894Y014263D01*
X018023Y014316D01*
X018121Y014414D01*
X018175Y014543D01*
X018175Y014682D01*
X018121Y014811D01*
X018085Y014848D01*
X019246Y016009D01*
X019340Y016103D01*
X019340Y018836D01*
X019246Y018929D01*
X019117Y018929D01*
X019246Y019059D01*
X019246Y019349D01*
X019041Y019554D01*
X018822Y019554D01*
X018646Y019729D01*
X016346Y019729D01*
X015097Y020979D01*
X015118Y020999D01*
X015171Y021128D01*
X015171Y021267D01*
X015118Y021396D01*
X015019Y021494D01*
X014891Y021548D01*
X014528Y021548D01*
X014197Y021879D01*
X014271Y021848D01*
X014891Y021848D01*
X015019Y021901D01*
X015118Y021999D01*
X015171Y022128D01*
X015171Y022267D01*
X015118Y022396D01*
X015019Y022494D01*
X014891Y022548D01*
X014271Y022548D01*
X014143Y022494D01*
X014044Y022396D01*
X013991Y022267D01*
X013991Y022128D01*
X014022Y022054D01*
X013740Y022336D01*
X013646Y022429D01*
X012513Y022429D01*
X012476Y022518D01*
X012355Y022639D01*
X012197Y022705D01*
X012026Y022705D01*
X011868Y022639D01*
X011747Y022518D01*
X011681Y022360D01*
X011681Y022189D01*
X011747Y022031D01*
X011849Y021929D01*
X011374Y021929D01*
X011476Y022031D01*
X011541Y022189D01*
X011541Y022360D01*
X011476Y022518D01*
X011355Y022639D01*
X011197Y022705D01*
X011026Y022705D01*
X010868Y022639D01*
X010747Y022518D01*
X010681Y022360D01*
X010681Y022189D01*
X010708Y022124D01*
X010514Y021929D01*
X010374Y021929D01*
X010476Y022031D01*
X010541Y022189D01*
X010541Y022360D01*
X010476Y022518D01*
X010355Y022639D01*
X010197Y022705D01*
X010026Y022705D01*
X009868Y022639D01*
X009747Y022518D01*
X009681Y022360D01*
X009681Y022189D01*
X009747Y022031D01*
X009849Y021929D01*
X004418Y021929D01*
X004463Y021948D01*
X004562Y022047D01*
X004615Y022175D01*
X004615Y022314D01*
X004562Y022443D01*
X004463Y022542D01*
X004334Y022595D01*
X003715Y022595D01*
X003587Y022542D01*
X003488Y022443D01*
X003435Y022314D01*
X003435Y022175D01*
X003488Y022047D01*
X003587Y021948D01*
X003632Y021929D01*
X002514Y021929D01*
X002420Y021836D01*
X001179Y020595D01*
X000715Y020595D01*
X000587Y020542D01*
X000488Y020443D01*
X000435Y020314D01*
X000435Y020175D01*
X000488Y020047D01*
X000587Y019948D01*
X000715Y019895D01*
X001334Y019895D01*
X001463Y019948D01*
X001562Y020047D01*
X001615Y020175D01*
X001615Y020314D01*
X001562Y020443D01*
X001521Y020484D01*
X002646Y021609D01*
X009838Y021609D01*
X009747Y021518D01*
X009681Y021360D01*
X009681Y021189D01*
X009708Y021124D01*
X008614Y020029D01*
X004544Y020029D01*
X004562Y020047D01*
X004615Y020175D01*
X004615Y020314D01*
X004562Y020443D01*
X004463Y020542D01*
X004334Y020595D01*
X003715Y020595D01*
X003587Y020542D01*
X003488Y020443D01*
X003435Y020314D01*
X003435Y020175D01*
X003488Y020047D01*
X003505Y020029D01*
X001614Y020029D01*
X001520Y019936D01*
X001179Y019595D01*
X000715Y019595D01*
X000587Y019542D01*
X000488Y019443D01*
X000435Y019314D01*
X000435Y019175D01*
X000488Y019047D01*
X000587Y018948D01*
X000715Y018895D01*
X001334Y018895D01*
X001463Y018948D01*
X001562Y019047D01*
X001615Y019175D01*
X001615Y019314D01*
X001562Y019443D01*
X001521Y019484D01*
X001746Y019709D01*
X002294Y019709D01*
X001179Y018595D01*
X000715Y018595D01*
X000587Y018542D01*
X000488Y018443D01*
X000435Y018314D01*
X000435Y018175D01*
X000488Y018047D01*
X000587Y017948D01*
X000715Y017895D01*
X001334Y017895D01*
X001463Y017948D01*
X001562Y018047D01*
X001615Y018175D01*
X001615Y018314D01*
X001562Y018443D01*
X001521Y018484D01*
X002546Y019509D01*
X003554Y019509D01*
X003488Y019443D01*
X003435Y019314D01*
X003435Y019175D01*
X003488Y019047D01*
X003587Y018948D01*
X003715Y018895D01*
X004334Y018895D01*
X004463Y018948D01*
X004562Y019047D01*
X004615Y019175D01*
X004615Y019314D01*
X004562Y019443D01*
X004495Y019509D01*
X007020Y019509D01*
X007020Y016103D01*
X007114Y016009D01*
X008114Y015009D01*
X015014Y015009D01*
X017130Y012893D01*
X017107Y012870D02*
X015062Y012870D01*
X015137Y012772D02*
X017032Y012772D01*
X016995Y012673D02*
X015175Y012673D01*
X015175Y012575D02*
X016995Y012575D01*
X017022Y012476D02*
X015147Y012476D01*
X015085Y012378D02*
X017084Y012378D01*
X017235Y012279D02*
X014934Y012279D01*
X014894Y011963D02*
X015023Y011909D01*
X015121Y011811D01*
X015175Y011682D01*
X015175Y011543D01*
X015121Y011414D01*
X015023Y011316D01*
X014894Y011263D01*
X014275Y011263D01*
X014146Y011316D01*
X014048Y011414D01*
X014009Y011509D01*
X013314Y011509D01*
X013220Y011603D01*
X013034Y011789D01*
X012669Y011789D01*
X012559Y011835D01*
X012474Y011919D01*
X012429Y012030D01*
X012429Y012149D01*
X012474Y012259D01*
X012559Y012344D01*
X012669Y012389D01*
X013168Y012389D01*
X013278Y012344D01*
X013363Y012259D01*
X013409Y012149D01*
X013409Y012030D01*
X013363Y011919D01*
X013359Y011916D01*
X013446Y011829D01*
X014066Y011829D01*
X014146Y011909D01*
X014275Y011963D01*
X014894Y011963D01*
X015047Y011885D02*
X017122Y011885D01*
X017146Y011909D02*
X017048Y011811D01*
X016995Y011682D01*
X016995Y011543D01*
X017048Y011414D01*
X017146Y011316D01*
X017275Y011263D01*
X017894Y011263D01*
X018023Y011316D01*
X018121Y011414D01*
X018175Y011543D01*
X018175Y011682D01*
X018121Y011811D01*
X018023Y011909D01*
X017894Y011963D01*
X017275Y011963D01*
X017146Y011909D01*
X017038Y011787D02*
X015131Y011787D01*
X015172Y011688D02*
X016997Y011688D01*
X016995Y011590D02*
X015175Y011590D01*
X015153Y011491D02*
X017016Y011491D01*
X017069Y011393D02*
X015100Y011393D01*
X014971Y011294D02*
X017199Y011294D01*
X017275Y010963D02*
X017146Y010909D01*
X017048Y010811D01*
X016995Y010682D01*
X016995Y010543D01*
X017048Y010414D01*
X017146Y010316D01*
X017275Y010263D01*
X017894Y010263D01*
X018023Y010316D01*
X018121Y010414D01*
X018175Y010543D01*
X018175Y010682D01*
X018121Y010811D01*
X018023Y010909D01*
X017894Y010963D01*
X017275Y010963D01*
X017137Y010900D02*
X015032Y010900D01*
X015023Y010909D02*
X014894Y010963D01*
X014275Y010963D01*
X014146Y010909D01*
X014048Y010811D01*
X014014Y010729D01*
X013314Y010729D01*
X013220Y010636D01*
X012974Y010389D01*
X012669Y010389D01*
X012559Y010344D01*
X012474Y010259D01*
X012429Y010149D01*
X012429Y010030D01*
X012474Y009919D01*
X012559Y009835D01*
X012669Y009789D01*
X013168Y009789D01*
X013278Y009835D01*
X013363Y009919D01*
X013409Y010030D01*
X013409Y010149D01*
X013363Y010259D01*
X013330Y010293D01*
X013446Y010409D01*
X014053Y010409D01*
X014146Y010316D01*
X014275Y010263D01*
X014894Y010263D01*
X015023Y010316D01*
X015121Y010414D01*
X015175Y010543D01*
X015175Y010682D01*
X015121Y010811D01*
X015023Y010909D01*
X015125Y010802D02*
X017044Y010802D01*
X017003Y010703D02*
X015166Y010703D01*
X015175Y010605D02*
X016995Y010605D01*
X017010Y010506D02*
X015159Y010506D01*
X015115Y010408D02*
X017054Y010408D01*
X017162Y010309D02*
X015007Y010309D01*
X015009Y009915D02*
X017161Y009915D01*
X017146Y009909D02*
X017048Y009811D01*
X016995Y009682D01*
X016995Y009543D01*
X017048Y009414D01*
X017146Y009316D01*
X017275Y009263D01*
X017760Y009263D01*
X019173Y007850D01*
X019131Y007850D01*
X018926Y007645D01*
X018926Y007355D01*
X019131Y007150D01*
X019421Y007150D01*
X019626Y007355D01*
X019626Y007645D01*
X019561Y007709D01*
X019990Y007709D01*
X019926Y007645D01*
X019926Y007355D01*
X020131Y007150D01*
X020421Y007150D01*
X020626Y007355D01*
X020626Y007645D01*
X020561Y007709D01*
X022214Y007709D01*
X022373Y007550D01*
X022373Y007315D01*
X022578Y007110D01*
X022868Y007110D01*
X023073Y007315D01*
X023073Y007605D01*
X022868Y007810D01*
X022578Y007810D01*
X022572Y007803D01*
X022346Y008029D01*
X019446Y008029D01*
X018091Y009384D01*
X018121Y009414D01*
X018175Y009543D01*
X018175Y009682D01*
X018121Y009811D01*
X018023Y009909D01*
X017894Y009963D01*
X017275Y009963D01*
X017146Y009909D01*
X017054Y009817D02*
X015115Y009817D01*
X015160Y009718D02*
X017009Y009718D01*
X016995Y009620D02*
X015175Y009620D01*
X015166Y009521D02*
X017004Y009521D01*
X017044Y009423D02*
X015125Y009423D01*
X015031Y009324D02*
X017138Y009324D01*
X017585Y009613D02*
X017680Y009569D01*
X019380Y007869D01*
X022280Y007869D01*
X022680Y007469D01*
X022723Y007460D01*
X022373Y007453D02*
X020626Y007453D01*
X020626Y007551D02*
X022372Y007551D01*
X022273Y007650D02*
X020621Y007650D01*
X020625Y007354D02*
X022373Y007354D01*
X022432Y007256D02*
X020527Y007256D01*
X020428Y007157D02*
X022531Y007157D01*
X022916Y007157D02*
X023531Y007157D01*
X023578Y007110D02*
X023868Y007110D01*
X024073Y007315D01*
X024073Y007605D01*
X023868Y007810D01*
X023578Y007810D01*
X023373Y007605D01*
X023373Y007315D01*
X023578Y007110D01*
X023432Y007256D02*
X023014Y007256D01*
X023073Y007354D02*
X023373Y007354D01*
X023373Y007453D02*
X023073Y007453D01*
X023073Y007551D02*
X023373Y007551D01*
X023419Y007650D02*
X023028Y007650D01*
X022930Y007748D02*
X023517Y007748D01*
X023930Y007748D02*
X024384Y007748D01*
X024384Y007650D02*
X024028Y007650D01*
X024073Y007551D02*
X024384Y007551D01*
X024384Y007453D02*
X024073Y007453D01*
X024073Y007354D02*
X024384Y007354D01*
X024384Y007256D02*
X024014Y007256D01*
X023916Y007157D02*
X024384Y007157D01*
X024384Y007059D02*
X011717Y007059D01*
X011815Y006960D02*
X024384Y006960D01*
X024384Y006862D02*
X016797Y006862D01*
X016895Y006763D02*
X024384Y006763D01*
X024384Y006665D02*
X016970Y006665D01*
X016970Y006566D02*
X024384Y006566D01*
X024384Y006468D02*
X016970Y006468D01*
X016940Y006369D02*
X024384Y006369D01*
X024384Y006271D02*
X016841Y006271D01*
X016433Y005975D02*
X024384Y005975D01*
X024384Y005877D02*
X016470Y005877D01*
X016470Y005778D02*
X024384Y005778D01*
X024384Y005680D02*
X023918Y005680D01*
X023870Y005728D02*
X023580Y005728D01*
X023375Y005523D01*
X023375Y005233D01*
X023580Y005028D01*
X023870Y005028D01*
X024075Y005233D01*
X024075Y005523D01*
X023870Y005728D01*
X024017Y005581D02*
X024384Y005581D01*
X024384Y005483D02*
X024075Y005483D01*
X024075Y005384D02*
X024384Y005384D01*
X024384Y005286D02*
X024075Y005286D01*
X024029Y005187D02*
X024384Y005187D01*
X024384Y005089D02*
X023930Y005089D01*
X023519Y005089D02*
X022987Y005089D01*
X023085Y004990D02*
X024384Y004990D01*
X024384Y004892D02*
X023184Y004892D01*
X023282Y004793D02*
X024384Y004793D01*
X024384Y004695D02*
X023381Y004695D01*
X023479Y004596D02*
X024384Y004596D01*
X024384Y004498D02*
X023578Y004498D01*
X023676Y004399D02*
X024384Y004399D01*
X024384Y004301D02*
X023775Y004301D01*
X023880Y003969D02*
X023960Y003904D01*
X023880Y003969D02*
X022480Y005369D01*
X020780Y005369D01*
X020725Y005378D01*
X020680Y005369D01*
X020480Y005169D01*
X017480Y005169D01*
X017180Y004869D01*
X017129Y004776D01*
X017471Y004934D02*
X017546Y005009D01*
X019831Y005009D01*
X019811Y004989D01*
X019754Y004851D01*
X019754Y004701D01*
X019811Y004563D01*
X019845Y004529D01*
X017414Y004529D01*
X017448Y004563D01*
X017505Y004701D01*
X017505Y004851D01*
X017471Y004934D01*
X017488Y004892D02*
X019771Y004892D01*
X019754Y004793D02*
X017505Y004793D01*
X017502Y004695D02*
X019756Y004695D01*
X019797Y004596D02*
X017462Y004596D01*
X017527Y004990D02*
X019812Y004990D01*
X020447Y004990D02*
X022633Y004990D01*
X022731Y004892D02*
X020488Y004892D01*
X020505Y004793D02*
X022830Y004793D01*
X022928Y004695D02*
X020502Y004695D01*
X020462Y004596D02*
X023027Y004596D01*
X022534Y005089D02*
X020930Y005089D01*
X021029Y005187D02*
X022436Y005187D01*
X022691Y005384D02*
X023375Y005384D01*
X023375Y005286D02*
X022790Y005286D01*
X022888Y005187D02*
X023421Y005187D01*
X023375Y005483D02*
X022593Y005483D01*
X023433Y005581D02*
X021017Y005581D01*
X020918Y005680D02*
X023531Y005680D01*
X024157Y004202D02*
X024384Y004202D01*
X024384Y004104D02*
X024255Y004104D01*
X024310Y004005D02*
X024384Y004005D01*
X024384Y003907D02*
X024310Y003907D01*
X024310Y003808D02*
X024384Y003808D01*
X024384Y003710D02*
X024261Y003710D01*
X024163Y003611D02*
X024384Y003611D01*
X024384Y003513D02*
X020487Y003513D01*
X020398Y003414D02*
X024384Y003414D01*
X024384Y003316D02*
X020300Y003316D01*
X020080Y003569D02*
X020137Y003648D01*
X020080Y003569D02*
X019780Y003269D01*
X019787Y003513D02*
X017487Y003513D01*
X017487Y003611D02*
X019787Y003611D01*
X019787Y003710D02*
X017487Y003710D01*
X017471Y003808D02*
X019803Y003808D01*
X019901Y003907D02*
X017373Y003907D01*
X016901Y003907D02*
X014928Y003907D01*
X015027Y003808D02*
X016803Y003808D01*
X016787Y003710D02*
X015039Y003710D01*
X015039Y003611D02*
X016787Y003611D01*
X016787Y003513D02*
X015039Y003513D01*
X015279Y004596D02*
X016797Y004596D01*
X016756Y004695D02*
X015181Y004695D01*
X015082Y004793D02*
X016754Y004793D01*
X016771Y004892D02*
X015066Y004892D01*
X015066Y004990D02*
X016812Y004990D01*
X016911Y005089D02*
X015066Y005089D01*
X014986Y005187D02*
X017272Y005187D01*
X017370Y005286D02*
X014888Y005286D01*
X015940Y006369D02*
X016299Y006369D01*
X016270Y006468D02*
X015970Y006468D01*
X015970Y006566D02*
X016270Y006566D01*
X016270Y006665D02*
X015970Y006665D01*
X015895Y006763D02*
X016344Y006763D01*
X016442Y006862D02*
X015797Y006862D01*
X014816Y007847D02*
X017441Y007847D01*
X017483Y007804D02*
X017773Y007804D01*
X017978Y008009D01*
X017978Y008299D01*
X017773Y008504D01*
X017483Y008504D01*
X017278Y008299D01*
X017278Y008009D01*
X017483Y007804D01*
X017343Y007945D02*
X014914Y007945D01*
X014978Y008009D02*
X014773Y007804D01*
X014483Y007804D01*
X014278Y008009D01*
X014278Y008299D01*
X014483Y008504D01*
X014773Y008504D01*
X014978Y008299D01*
X014978Y008009D01*
X014978Y008044D02*
X017278Y008044D01*
X017278Y008142D02*
X014978Y008142D01*
X014978Y008241D02*
X017278Y008241D01*
X017318Y008339D02*
X014938Y008339D01*
X014840Y008438D02*
X017417Y008438D01*
X017840Y008438D02*
X018585Y008438D01*
X018487Y008536D02*
X013773Y008536D01*
X013675Y008438D02*
X014417Y008438D01*
X014318Y008339D02*
X013212Y008339D01*
X013252Y008241D02*
X014278Y008241D01*
X014278Y008142D02*
X013252Y008142D01*
X013252Y008044D02*
X014278Y008044D01*
X014343Y007945D02*
X013187Y007945D01*
X013089Y007847D02*
X014441Y007847D01*
X013872Y008635D02*
X018388Y008635D01*
X018290Y008733D02*
X013970Y008733D01*
X014069Y008832D02*
X018191Y008832D01*
X018093Y008930D02*
X014167Y008930D01*
X014266Y009029D02*
X017994Y009029D01*
X017896Y009127D02*
X014364Y009127D01*
X014463Y009226D02*
X017797Y009226D01*
X018151Y009324D02*
X019937Y009324D01*
X019937Y009299D02*
X020142Y009093D01*
X020432Y009093D01*
X020637Y009299D01*
X020637Y009588D01*
X020432Y009793D01*
X020142Y009793D01*
X019937Y009588D01*
X019937Y009299D01*
X020009Y009226D02*
X018250Y009226D01*
X018348Y009127D02*
X020108Y009127D01*
X019937Y009423D02*
X018125Y009423D01*
X018166Y009521D02*
X019937Y009521D01*
X019968Y009620D02*
X018175Y009620D01*
X018160Y009718D02*
X020067Y009718D01*
X020507Y009718D02*
X023067Y009718D01*
X023142Y009793D02*
X022937Y009588D01*
X022937Y009299D01*
X023142Y009093D01*
X023432Y009093D01*
X023637Y009299D01*
X023637Y009588D01*
X023432Y009793D01*
X023142Y009793D01*
X022968Y009620D02*
X020605Y009620D01*
X020637Y009521D02*
X022937Y009521D01*
X022937Y009423D02*
X020637Y009423D01*
X020637Y009324D02*
X022937Y009324D01*
X023009Y009226D02*
X020564Y009226D01*
X020465Y009127D02*
X023108Y009127D01*
X023465Y009127D02*
X024384Y009127D01*
X024384Y009029D02*
X018447Y009029D01*
X018545Y008930D02*
X024384Y008930D01*
X024384Y008832D02*
X018644Y008832D01*
X018742Y008733D02*
X024384Y008733D01*
X024384Y008635D02*
X018841Y008635D01*
X018939Y008536D02*
X024384Y008536D01*
X024384Y008438D02*
X019038Y008438D01*
X019136Y008339D02*
X024384Y008339D01*
X024384Y008241D02*
X019235Y008241D01*
X019333Y008142D02*
X024384Y008142D01*
X024384Y008044D02*
X019432Y008044D01*
X019128Y007847D02*
X017816Y007847D01*
X017914Y007945D02*
X019078Y007945D01*
X018979Y008044D02*
X017978Y008044D01*
X017978Y008142D02*
X018881Y008142D01*
X018782Y008241D02*
X017978Y008241D01*
X017938Y008339D02*
X018684Y008339D01*
X019029Y007748D02*
X011027Y007748D01*
X011089Y007847D02*
X012714Y007847D01*
X012616Y007945D02*
X011187Y007945D01*
X011252Y008044D02*
X012552Y008044D01*
X012552Y008142D02*
X011252Y008142D01*
X011252Y008241D02*
X012552Y008241D01*
X012591Y008339D02*
X011212Y008339D01*
X010902Y008155D02*
X010880Y008169D01*
X010480Y008569D01*
X013580Y008569D01*
X014580Y009569D01*
X014585Y009613D01*
X014161Y009915D02*
X013359Y009915D01*
X013402Y010014D02*
X024384Y010014D01*
X024384Y010112D02*
X013409Y010112D01*
X013383Y010211D02*
X024384Y010211D01*
X024384Y010309D02*
X018007Y010309D01*
X018115Y010408D02*
X024384Y010408D01*
X024384Y010506D02*
X018159Y010506D01*
X018175Y010605D02*
X021892Y010605D01*
X021947Y010590D02*
X022240Y010590D01*
X022522Y010666D01*
X022775Y010812D01*
X022982Y011018D01*
X023128Y011272D01*
X023203Y011554D01*
X023203Y011846D01*
X023128Y012128D01*
X022982Y012382D01*
X022775Y012588D01*
X022522Y012734D01*
X022240Y012810D01*
X021947Y012810D01*
X021665Y012734D01*
X021412Y012588D01*
X021205Y012382D01*
X021059Y012128D01*
X020983Y011846D01*
X020983Y011554D01*
X021059Y011272D01*
X021205Y011018D01*
X021412Y010812D01*
X021665Y010666D01*
X021947Y010590D01*
X022295Y010605D02*
X024384Y010605D01*
X024384Y010703D02*
X022587Y010703D01*
X022758Y010802D02*
X024384Y010802D01*
X024384Y010900D02*
X022863Y010900D01*
X022962Y010999D02*
X024384Y010999D01*
X024384Y011097D02*
X023027Y011097D01*
X023084Y011196D02*
X024384Y011196D01*
X024384Y011294D02*
X023134Y011294D01*
X023160Y011393D02*
X024384Y011393D01*
X024384Y011491D02*
X023187Y011491D01*
X023203Y011590D02*
X024384Y011590D01*
X024384Y011688D02*
X023203Y011688D01*
X023203Y011787D02*
X024384Y011787D01*
X024384Y011885D02*
X023193Y011885D01*
X023166Y011984D02*
X024384Y011984D01*
X024384Y012082D02*
X023140Y012082D01*
X023098Y012181D02*
X024384Y012181D01*
X024384Y012279D02*
X023041Y012279D01*
X022984Y012378D02*
X024384Y012378D01*
X024384Y012476D02*
X022887Y012476D01*
X022788Y012575D02*
X024384Y012575D01*
X024384Y012673D02*
X022628Y012673D01*
X022382Y012772D02*
X024384Y012772D01*
X024384Y012870D02*
X018062Y012870D01*
X018137Y012772D02*
X021805Y012772D01*
X021559Y012673D02*
X018175Y012673D01*
X018175Y012575D02*
X021398Y012575D01*
X021300Y012476D02*
X018147Y012476D01*
X018085Y012378D02*
X021203Y012378D01*
X021146Y012279D02*
X017934Y012279D01*
X018047Y011885D02*
X020994Y011885D01*
X020983Y011787D02*
X018131Y011787D01*
X018172Y011688D02*
X020983Y011688D01*
X020983Y011590D02*
X018175Y011590D01*
X018153Y011491D02*
X021000Y011491D01*
X021027Y011393D02*
X018100Y011393D01*
X017971Y011294D02*
X021053Y011294D01*
X021103Y011196D02*
X006041Y011196D01*
X006089Y011243D02*
X005884Y011038D01*
X005594Y011038D01*
X005389Y011243D01*
X005389Y011533D01*
X005594Y011738D01*
X005884Y011738D01*
X006089Y011533D01*
X006089Y011243D01*
X006089Y011294D02*
X014199Y011294D01*
X014069Y011393D02*
X009778Y011393D01*
X009695Y011310D02*
X009900Y011515D01*
X009900Y011805D01*
X009695Y012010D01*
X009405Y012010D01*
X009200Y011805D01*
X009200Y011515D01*
X009405Y011310D01*
X009695Y011310D01*
X009877Y011491D02*
X014016Y011491D01*
X014122Y011885D02*
X013390Y011885D01*
X013390Y011984D02*
X021020Y011984D01*
X021047Y012082D02*
X013409Y012082D01*
X013395Y012181D02*
X021089Y012181D01*
X021160Y011097D02*
X005943Y011097D01*
X006089Y011393D02*
X007323Y011393D01*
X007405Y011310D02*
X007695Y011310D01*
X007900Y011515D01*
X007900Y011805D01*
X007695Y012010D01*
X007405Y012010D01*
X007200Y011805D01*
X007200Y011515D01*
X007405Y011310D01*
X007224Y011491D02*
X006089Y011491D01*
X006033Y011590D02*
X007200Y011590D01*
X007200Y011688D02*
X005934Y011688D01*
X005544Y011688D02*
X000380Y011688D01*
X000380Y011590D02*
X000703Y011590D01*
X000536Y011491D02*
X000380Y011491D01*
X000380Y011393D02*
X000467Y011393D01*
X000435Y011294D02*
X000380Y011294D01*
X000380Y011196D02*
X000435Y011196D01*
X000467Y011097D02*
X000380Y011097D01*
X000380Y010999D02*
X000536Y010999D01*
X000380Y010900D02*
X000702Y010900D01*
X000380Y010802D02*
X004221Y010802D01*
X004320Y010703D02*
X000380Y010703D01*
X000380Y010605D02*
X004418Y010605D01*
X004498Y010506D02*
X004517Y010506D01*
X004576Y010408D02*
X004615Y010408D01*
X004615Y010309D02*
X004714Y010309D01*
X004812Y010211D02*
X004615Y010211D01*
X004589Y010112D02*
X004911Y010112D01*
X004980Y010269D02*
X007380Y010269D01*
X007468Y010408D02*
X012992Y010408D01*
X013091Y010506D02*
X004969Y010506D01*
X004871Y010605D02*
X013189Y010605D01*
X013288Y010703D02*
X004772Y010703D01*
X004674Y010802D02*
X014044Y010802D01*
X014137Y010900D02*
X004575Y010900D01*
X004514Y010999D02*
X021225Y010999D01*
X021323Y010900D02*
X018032Y010900D01*
X018125Y010802D02*
X021429Y010802D01*
X021600Y010703D02*
X018166Y010703D01*
X018009Y009915D02*
X024384Y009915D01*
X024384Y009817D02*
X018115Y009817D01*
X018931Y007650D02*
X011126Y007650D01*
X011224Y007551D02*
X018926Y007551D01*
X018926Y007453D02*
X011323Y007453D01*
X011421Y007354D02*
X018926Y007354D01*
X019025Y007256D02*
X011520Y007256D01*
X011618Y007157D02*
X019123Y007157D01*
X019428Y007157D02*
X020123Y007157D01*
X020025Y007256D02*
X019527Y007256D01*
X019625Y007354D02*
X019926Y007354D01*
X019926Y007453D02*
X019626Y007453D01*
X019626Y007551D02*
X019926Y007551D01*
X019931Y007650D02*
X019621Y007650D01*
X022430Y007945D02*
X024384Y007945D01*
X024384Y007847D02*
X022529Y007847D01*
X023564Y009226D02*
X024384Y009226D01*
X024384Y009324D02*
X023637Y009324D01*
X023637Y009423D02*
X024384Y009423D01*
X024384Y009521D02*
X023637Y009521D01*
X023605Y009620D02*
X024384Y009620D01*
X024384Y009718D02*
X023507Y009718D01*
X024384Y012969D02*
X017507Y012969D01*
X017408Y013067D02*
X024384Y013067D01*
X024384Y013166D02*
X017310Y013166D01*
X017271Y013264D02*
X017211Y013264D01*
X017028Y013461D02*
X017014Y013461D01*
X016995Y013560D02*
X016916Y013560D01*
X016995Y013658D02*
X016817Y013658D01*
X016719Y013757D02*
X017025Y013757D01*
X017092Y013855D02*
X016620Y013855D01*
X016522Y013954D02*
X017254Y013954D01*
X017114Y014348D02*
X016128Y014348D01*
X016226Y014249D02*
X021174Y014249D01*
X021123Y014300D02*
X021364Y014060D01*
X021703Y014060D01*
X021943Y014300D01*
X021943Y014640D01*
X021703Y014880D01*
X021364Y014880D01*
X021123Y014640D01*
X021123Y014300D01*
X021123Y014348D02*
X018055Y014348D01*
X018134Y014446D02*
X021123Y014446D01*
X021123Y014545D02*
X018175Y014545D01*
X018175Y014643D02*
X021127Y014643D01*
X021225Y014742D02*
X018150Y014742D01*
X018092Y014840D02*
X021324Y014840D01*
X021364Y015140D02*
X021703Y015140D01*
X021943Y015380D01*
X021943Y015720D01*
X021703Y015960D01*
X021364Y015960D01*
X021123Y015720D01*
X021123Y015380D01*
X021364Y015140D01*
X021269Y015234D02*
X018471Y015234D01*
X018373Y015136D02*
X022243Y015136D01*
X022243Y015180D02*
X022243Y014840D01*
X022484Y014600D01*
X022823Y014600D01*
X023063Y014840D01*
X023063Y015180D01*
X022823Y015420D01*
X022484Y015420D01*
X022243Y015180D01*
X022298Y015234D02*
X021798Y015234D01*
X021896Y015333D02*
X022396Y015333D01*
X022243Y015037D02*
X018274Y015037D01*
X018176Y014939D02*
X022243Y014939D01*
X022243Y014840D02*
X021743Y014840D01*
X021841Y014742D02*
X022342Y014742D01*
X022440Y014643D02*
X021940Y014643D01*
X021943Y014545D02*
X024384Y014545D01*
X024384Y014643D02*
X022867Y014643D01*
X022965Y014742D02*
X024384Y014742D01*
X024384Y014840D02*
X023063Y014840D01*
X023063Y014939D02*
X024384Y014939D01*
X024384Y015037D02*
X023063Y015037D01*
X023063Y015136D02*
X024384Y015136D01*
X024384Y015234D02*
X023009Y015234D01*
X022910Y015333D02*
X024384Y015333D01*
X024384Y015431D02*
X021943Y015431D01*
X021943Y015530D02*
X024384Y015530D01*
X024384Y015628D02*
X021943Y015628D01*
X021936Y015727D02*
X022437Y015727D01*
X022484Y015680D02*
X022823Y015680D01*
X023063Y015920D01*
X023063Y016260D01*
X022823Y016500D01*
X022484Y016500D01*
X022313Y016329D01*
X021813Y016329D01*
X021943Y016460D01*
X021943Y016800D01*
X021703Y017040D01*
X021364Y017040D01*
X021240Y016916D01*
X021240Y017424D01*
X021364Y017300D01*
X021703Y017300D01*
X021943Y017540D01*
X021943Y017880D01*
X021703Y018120D01*
X021364Y018120D01*
X021160Y017916D01*
X018097Y020979D01*
X018118Y020999D01*
X018171Y021128D01*
X018171Y021267D01*
X018118Y021396D01*
X018019Y021494D01*
X017891Y021548D01*
X017271Y021548D01*
X017143Y021494D01*
X017044Y021396D01*
X016991Y021267D01*
X016991Y021128D01*
X017044Y020999D01*
X017143Y020901D01*
X017271Y020848D01*
X017775Y020848D01*
X020920Y017703D01*
X020920Y016103D01*
X021014Y016009D01*
X022243Y016009D01*
X022243Y015920D01*
X022484Y015680D01*
X022338Y015825D02*
X021838Y015825D01*
X021739Y015924D02*
X022243Y015924D01*
X022580Y016169D02*
X022653Y016090D01*
X022580Y016169D02*
X021080Y016169D01*
X021080Y017769D01*
X017680Y021169D01*
X017581Y021198D01*
X017269Y020849D02*
X015227Y020849D01*
X015325Y020750D02*
X017873Y020750D01*
X017971Y020652D02*
X015424Y020652D01*
X015522Y020553D02*
X018070Y020553D01*
X018019Y020494D02*
X017891Y020548D01*
X017271Y020548D01*
X017143Y020494D01*
X017044Y020396D01*
X016991Y020267D01*
X016991Y020128D01*
X017044Y019999D01*
X017143Y019901D01*
X017271Y019848D01*
X017891Y019848D01*
X018019Y019901D01*
X018118Y019999D01*
X018171Y020128D01*
X018171Y020267D01*
X018118Y020396D01*
X018019Y020494D01*
X018059Y020455D02*
X018168Y020455D01*
X018134Y020356D02*
X018267Y020356D01*
X018171Y020258D02*
X018365Y020258D01*
X018464Y020159D02*
X018171Y020159D01*
X018143Y020061D02*
X018562Y020061D01*
X018661Y019962D02*
X018081Y019962D01*
X017930Y019864D02*
X018759Y019864D01*
X018858Y019765D02*
X016310Y019765D01*
X016212Y019864D02*
X017233Y019864D01*
X017082Y019962D02*
X016113Y019962D01*
X016015Y020061D02*
X017019Y020061D01*
X016991Y020159D02*
X015916Y020159D01*
X015818Y020258D02*
X016991Y020258D01*
X017028Y020356D02*
X015719Y020356D01*
X015621Y020455D02*
X017103Y020455D01*
X017097Y020947D02*
X015128Y020947D01*
X015137Y021046D02*
X017025Y021046D01*
X016991Y021144D02*
X015171Y021144D01*
X015171Y021243D02*
X016991Y021243D01*
X017022Y021341D02*
X015140Y021341D01*
X015074Y021440D02*
X017088Y021440D01*
X017249Y021538D02*
X014913Y021538D01*
X015051Y021932D02*
X017111Y021932D01*
X017143Y021901D02*
X017044Y021999D01*
X016991Y022128D01*
X016991Y022267D01*
X017044Y022396D01*
X017143Y022494D01*
X017271Y022548D01*
X017891Y022548D01*
X018019Y022494D01*
X018118Y022396D01*
X018171Y022267D01*
X018171Y022128D01*
X018118Y021999D01*
X018019Y021901D01*
X017891Y021848D01*
X017271Y021848D01*
X017143Y021901D01*
X017031Y022031D02*
X015131Y022031D01*
X015171Y022129D02*
X016991Y022129D01*
X016991Y022228D02*
X015171Y022228D01*
X015147Y022326D02*
X017016Y022326D01*
X017073Y022425D02*
X015089Y022425D01*
X014950Y022523D02*
X017213Y022523D01*
X017950Y022523D02*
X018721Y022523D01*
X018751Y022554D02*
X018546Y022349D01*
X018546Y022059D01*
X018751Y021854D01*
X019041Y021854D01*
X019246Y022059D01*
X019246Y022349D01*
X019041Y022554D01*
X018751Y022554D01*
X018622Y022425D02*
X018089Y022425D01*
X018147Y022326D02*
X018546Y022326D01*
X018546Y022228D02*
X018171Y022228D01*
X018171Y022129D02*
X018546Y022129D01*
X018574Y022031D02*
X018131Y022031D01*
X018051Y021932D02*
X018673Y021932D01*
X019120Y021932D02*
X021044Y021932D01*
X021059Y021988D02*
X020983Y021706D01*
X020983Y021414D01*
X021059Y021132D01*
X021205Y020878D01*
X021412Y020672D01*
X021665Y020526D01*
X021947Y020450D01*
X022240Y020450D01*
X022522Y020526D01*
X022775Y020672D01*
X022982Y020878D01*
X023128Y021132D01*
X023203Y021414D01*
X023203Y021706D01*
X023128Y021988D01*
X022982Y022242D01*
X022775Y022448D01*
X022522Y022594D01*
X022240Y022670D01*
X021947Y022670D01*
X021665Y022594D01*
X021412Y022448D01*
X021205Y022242D01*
X021059Y021988D01*
X021084Y022031D02*
X019218Y022031D01*
X019246Y022129D02*
X021140Y022129D01*
X021197Y022228D02*
X019246Y022228D01*
X019246Y022326D02*
X021290Y022326D01*
X021388Y022425D02*
X019170Y022425D01*
X019072Y022523D02*
X021542Y022523D01*
X021768Y022622D02*
X012372Y022622D01*
X012471Y022523D02*
X014213Y022523D01*
X014073Y022425D02*
X013651Y022425D01*
X013749Y022326D02*
X014016Y022326D01*
X013991Y022228D02*
X013848Y022228D01*
X013946Y022129D02*
X013991Y022129D01*
X013789Y021834D02*
X012442Y021834D01*
X012440Y021836D02*
X012360Y021915D01*
X012476Y022031D01*
X012508Y022109D01*
X013514Y022109D01*
X014136Y021487D01*
X014044Y021396D01*
X013991Y021267D01*
X013991Y021128D01*
X014044Y020999D01*
X014115Y020929D01*
X013346Y020929D01*
X012440Y021836D01*
X012377Y021932D02*
X013691Y021932D01*
X013592Y022031D02*
X012476Y022031D01*
X012540Y021735D02*
X013888Y021735D01*
X013986Y021637D02*
X012639Y021637D01*
X012737Y021538D02*
X014085Y021538D01*
X014088Y021440D02*
X012836Y021440D01*
X012934Y021341D02*
X014022Y021341D01*
X013991Y021243D02*
X013033Y021243D01*
X013131Y021144D02*
X013991Y021144D01*
X014025Y021046D02*
X013230Y021046D01*
X013328Y020947D02*
X014097Y020947D01*
X014103Y020455D02*
X010492Y020455D01*
X010590Y020553D02*
X014770Y020553D01*
X014780Y020769D02*
X013280Y020769D01*
X012280Y021769D01*
X010880Y021769D01*
X010480Y021369D01*
X010180Y021369D01*
X010111Y021275D01*
X010080Y021269D01*
X008680Y019869D01*
X001680Y019869D01*
X001080Y019269D01*
X001025Y019245D01*
X001251Y019667D02*
X000380Y019667D01*
X000380Y019765D02*
X001350Y019765D01*
X001448Y019864D02*
X000380Y019864D01*
X000380Y019962D02*
X000572Y019962D01*
X000482Y020061D02*
X000380Y020061D01*
X000380Y020159D02*
X000441Y020159D01*
X000435Y020258D02*
X000380Y020258D01*
X000380Y020356D02*
X000452Y020356D01*
X000500Y020455D02*
X000380Y020455D01*
X000380Y020553D02*
X000615Y020553D01*
X000380Y020652D02*
X001236Y020652D01*
X001335Y020750D02*
X000380Y020750D01*
X000380Y020849D02*
X001433Y020849D01*
X001461Y020947D02*
X001532Y020947D01*
X001463Y020948D02*
X001562Y021047D01*
X001615Y021175D01*
X001615Y021314D01*
X001562Y021443D01*
X001463Y021542D01*
X001334Y021595D01*
X000715Y021595D01*
X000587Y021542D01*
X000488Y021443D01*
X000435Y021314D01*
X000435Y021175D01*
X000488Y021047D01*
X000587Y020948D01*
X000715Y020895D01*
X001334Y020895D01*
X001463Y020948D01*
X001561Y021046D02*
X001630Y021046D01*
X001602Y021144D02*
X001729Y021144D01*
X001827Y021243D02*
X001615Y021243D01*
X001604Y021341D02*
X001926Y021341D01*
X002024Y021440D02*
X001563Y021440D01*
X001466Y021538D02*
X002123Y021538D01*
X002221Y021637D02*
X000380Y021637D01*
X000380Y021735D02*
X002320Y021735D01*
X002418Y021834D02*
X000380Y021834D01*
X000380Y021932D02*
X000625Y021932D01*
X000587Y021948D02*
X000715Y021895D01*
X001334Y021895D01*
X001463Y021948D01*
X001562Y022047D01*
X001615Y022175D01*
X001615Y022314D01*
X001562Y022443D01*
X001463Y022542D01*
X001334Y022595D01*
X000715Y022595D01*
X000587Y022542D01*
X000488Y022443D01*
X000435Y022314D01*
X000435Y022175D01*
X000488Y022047D01*
X000587Y021948D01*
X000504Y022031D02*
X000380Y022031D01*
X000380Y022129D02*
X000454Y022129D01*
X000435Y022228D02*
X000380Y022228D01*
X000380Y022326D02*
X000440Y022326D01*
X000481Y022425D02*
X000380Y022425D01*
X000380Y022523D02*
X000568Y022523D01*
X000380Y022622D02*
X009851Y022622D01*
X009752Y022523D02*
X004481Y022523D01*
X004569Y022425D02*
X009708Y022425D01*
X009681Y022326D02*
X004610Y022326D01*
X004615Y022228D02*
X009681Y022228D01*
X009706Y022129D02*
X004596Y022129D01*
X004546Y022031D02*
X009747Y022031D01*
X009846Y021932D02*
X004425Y021932D01*
X004334Y021595D02*
X003715Y021595D01*
X003587Y021542D01*
X003488Y021443D01*
X003435Y021314D01*
X003435Y021175D01*
X003488Y021047D01*
X003587Y020948D01*
X003715Y020895D01*
X004334Y020895D01*
X004463Y020948D01*
X004562Y021047D01*
X004615Y021175D01*
X004615Y021314D01*
X004562Y021443D01*
X004463Y021542D01*
X004334Y021595D01*
X004466Y021538D02*
X009767Y021538D01*
X009714Y021440D02*
X004563Y021440D01*
X004604Y021341D02*
X009681Y021341D01*
X009681Y021243D02*
X004615Y021243D01*
X004602Y021144D02*
X009700Y021144D01*
X009630Y021046D02*
X004561Y021046D01*
X004461Y020947D02*
X009532Y020947D01*
X009433Y020849D02*
X007970Y020849D01*
X007886Y020933D02*
X008091Y020728D01*
X008091Y020438D01*
X007886Y020233D01*
X007596Y020233D01*
X007391Y020438D01*
X007391Y020728D01*
X007596Y020933D01*
X007886Y020933D01*
X008069Y020750D02*
X009335Y020750D01*
X009236Y020652D02*
X008091Y020652D01*
X008091Y020553D02*
X009138Y020553D01*
X009039Y020455D02*
X008091Y020455D01*
X008009Y020356D02*
X008941Y020356D01*
X008842Y020258D02*
X007910Y020258D01*
X007571Y020258D02*
X005910Y020258D01*
X005886Y020233D02*
X006091Y020438D01*
X006091Y020728D01*
X005886Y020933D01*
X005596Y020933D01*
X005391Y020728D01*
X005391Y020438D01*
X005596Y020233D01*
X005886Y020233D01*
X006009Y020356D02*
X007473Y020356D01*
X007391Y020455D02*
X006091Y020455D01*
X006091Y020553D02*
X007391Y020553D01*
X007391Y020652D02*
X006091Y020652D01*
X006069Y020750D02*
X007413Y020750D01*
X007512Y020849D02*
X005970Y020849D01*
X005512Y020849D02*
X001886Y020849D01*
X001984Y020947D02*
X003588Y020947D01*
X003489Y021046D02*
X002083Y021046D01*
X002181Y021144D02*
X003448Y021144D01*
X003435Y021243D02*
X002280Y021243D01*
X002378Y021341D02*
X003446Y021341D01*
X003487Y021440D02*
X002477Y021440D01*
X002575Y021538D02*
X003583Y021538D01*
X003625Y021932D02*
X001425Y021932D01*
X001546Y022031D02*
X003504Y022031D01*
X003454Y022129D02*
X001596Y022129D01*
X001615Y022228D02*
X003435Y022228D01*
X003440Y022326D02*
X001610Y022326D01*
X001569Y022425D02*
X003481Y022425D01*
X003568Y022523D02*
X001481Y022523D01*
X000380Y022720D02*
X024384Y022720D01*
X024384Y022622D02*
X022419Y022622D01*
X022645Y022523D02*
X024384Y022523D01*
X024384Y022425D02*
X022798Y022425D01*
X022897Y022326D02*
X024384Y022326D01*
X024384Y022228D02*
X022990Y022228D01*
X023046Y022129D02*
X024384Y022129D01*
X024384Y022031D02*
X023103Y022031D01*
X023143Y021932D02*
X024384Y021932D01*
X024384Y021834D02*
X023169Y021834D01*
X023196Y021735D02*
X024384Y021735D01*
X024384Y021637D02*
X023203Y021637D01*
X023203Y021538D02*
X024384Y021538D01*
X024384Y021440D02*
X023203Y021440D01*
X023184Y021341D02*
X024384Y021341D01*
X024384Y021243D02*
X023158Y021243D01*
X023131Y021144D02*
X024384Y021144D01*
X024384Y021046D02*
X023078Y021046D01*
X023021Y020947D02*
X024384Y020947D01*
X024384Y020849D02*
X022952Y020849D01*
X022854Y020750D02*
X024384Y020750D01*
X024384Y020652D02*
X022740Y020652D01*
X022570Y020553D02*
X024384Y020553D01*
X024384Y020455D02*
X022258Y020455D01*
X021929Y020455D02*
X018621Y020455D01*
X018719Y020356D02*
X024384Y020356D01*
X024384Y020258D02*
X018818Y020258D01*
X018916Y020159D02*
X024384Y020159D01*
X024384Y020061D02*
X019015Y020061D01*
X019113Y019962D02*
X024384Y019962D01*
X024384Y019864D02*
X019212Y019864D01*
X019310Y019765D02*
X024384Y019765D01*
X024384Y019667D02*
X019409Y019667D01*
X019507Y019568D02*
X024384Y019568D01*
X024384Y019470D02*
X019606Y019470D01*
X019704Y019371D02*
X024384Y019371D01*
X024384Y019273D02*
X019803Y019273D01*
X019901Y019174D02*
X021338Y019174D01*
X021364Y019200D02*
X021123Y018960D01*
X021123Y018620D01*
X021364Y018380D01*
X021703Y018380D01*
X021943Y018620D01*
X021943Y018960D01*
X021703Y019200D01*
X021364Y019200D01*
X021239Y019076D02*
X020000Y019076D01*
X020098Y018977D02*
X021141Y018977D01*
X021123Y018879D02*
X020197Y018879D01*
X020295Y018780D02*
X021123Y018780D01*
X021123Y018682D02*
X020394Y018682D01*
X020492Y018583D02*
X021160Y018583D01*
X021259Y018485D02*
X020591Y018485D01*
X020689Y018386D02*
X021357Y018386D01*
X021334Y018091D02*
X020985Y018091D01*
X021083Y017992D02*
X021236Y017992D01*
X020886Y018189D02*
X022243Y018189D01*
X022243Y018091D02*
X021732Y018091D01*
X021831Y017992D02*
X022331Y017992D01*
X022243Y018080D02*
X022484Y017840D01*
X022823Y017840D01*
X023063Y018080D01*
X023063Y018420D01*
X022823Y018660D01*
X022484Y018660D01*
X022243Y018420D01*
X022243Y018080D01*
X022243Y018288D02*
X020788Y018288D01*
X020532Y018091D02*
X019340Y018091D01*
X019340Y018189D02*
X020434Y018189D01*
X020335Y018288D02*
X019340Y018288D01*
X019340Y018386D02*
X020237Y018386D01*
X020138Y018485D02*
X019340Y018485D01*
X019340Y018583D02*
X020040Y018583D01*
X019941Y018682D02*
X019340Y018682D01*
X019340Y018780D02*
X019843Y018780D01*
X019744Y018879D02*
X019297Y018879D01*
X019180Y018769D02*
X016780Y018769D01*
X014780Y020769D01*
X014680Y021169D02*
X014581Y021198D01*
X014580Y021269D01*
X013580Y022269D01*
X012180Y022269D01*
X012111Y022275D01*
X011708Y022425D02*
X011515Y022425D01*
X011541Y022326D02*
X011681Y022326D01*
X011681Y022228D02*
X011541Y022228D01*
X011517Y022129D02*
X011706Y022129D01*
X011747Y022031D02*
X011476Y022031D01*
X011377Y021932D02*
X011846Y021932D01*
X011767Y021538D02*
X011456Y021538D01*
X011508Y021440D02*
X011714Y021440D01*
X011681Y021341D02*
X011541Y021341D01*
X011541Y021243D02*
X011681Y021243D01*
X011700Y021144D02*
X011523Y021144D01*
X011482Y021046D02*
X011741Y021046D01*
X011831Y020947D02*
X011392Y020947D01*
X011207Y020849D02*
X012016Y020849D01*
X012207Y020849D02*
X012974Y020849D01*
X012876Y020947D02*
X012392Y020947D01*
X012482Y021046D02*
X012777Y021046D01*
X012679Y021144D02*
X012523Y021144D01*
X012541Y021243D02*
X012580Y021243D01*
X013073Y020750D02*
X010787Y020750D01*
X010689Y020652D02*
X013171Y020652D01*
X014028Y020356D02*
X010393Y020356D01*
X010295Y020258D02*
X013991Y020258D01*
X013991Y020159D02*
X010196Y020159D01*
X010098Y020061D02*
X014019Y020061D01*
X014082Y019962D02*
X009999Y019962D01*
X009901Y019864D02*
X014048Y019864D01*
X013950Y019765D02*
X009802Y019765D01*
X009704Y019667D02*
X013851Y019667D01*
X013753Y019568D02*
X009605Y019568D01*
X009480Y019669D02*
X011080Y021269D01*
X011111Y021275D01*
X010708Y021124D02*
X009414Y019829D01*
X008866Y019829D01*
X009924Y020887D01*
X010026Y020845D01*
X010197Y020845D01*
X010355Y020910D01*
X010476Y021031D01*
X010541Y021189D01*
X010541Y021209D01*
X010546Y021209D01*
X010640Y021303D01*
X010681Y021345D01*
X010681Y021189D01*
X010708Y021124D01*
X010700Y021144D02*
X010523Y021144D01*
X010482Y021046D02*
X010630Y021046D01*
X010532Y020947D02*
X010392Y020947D01*
X010433Y020849D02*
X010207Y020849D01*
X010335Y020750D02*
X009787Y020750D01*
X009689Y020652D02*
X010236Y020652D01*
X010138Y020553D02*
X009590Y020553D01*
X009492Y020455D02*
X010039Y020455D01*
X009941Y020356D02*
X009393Y020356D01*
X009295Y020258D02*
X009842Y020258D01*
X009744Y020159D02*
X009196Y020159D01*
X009098Y020061D02*
X009645Y020061D01*
X009547Y019962D02*
X008999Y019962D01*
X008901Y019864D02*
X009448Y019864D01*
X009480Y019669D02*
X007180Y019669D01*
X007180Y016169D01*
X008180Y015169D01*
X015080Y015169D01*
X017580Y012669D01*
X017585Y012613D01*
X017898Y013264D02*
X018649Y013264D01*
X018664Y013250D02*
X018954Y013250D01*
X019159Y013455D01*
X019159Y013745D01*
X018954Y013950D01*
X018664Y013950D01*
X018459Y013745D01*
X018459Y013455D01*
X018664Y013250D01*
X018551Y013363D02*
X018070Y013363D01*
X018141Y013461D02*
X018459Y013461D01*
X018459Y013560D02*
X018175Y013560D01*
X018175Y013658D02*
X018459Y013658D01*
X018471Y013757D02*
X018144Y013757D01*
X018077Y013855D02*
X018569Y013855D01*
X019048Y013855D02*
X024384Y013855D01*
X024384Y013757D02*
X019147Y013757D01*
X019159Y013658D02*
X024384Y013658D01*
X024384Y013560D02*
X019159Y013560D01*
X019159Y013461D02*
X024384Y013461D01*
X024384Y013363D02*
X019067Y013363D01*
X018968Y013264D02*
X024384Y013264D01*
X024384Y013954D02*
X017916Y013954D01*
X017585Y014613D02*
X017680Y014669D01*
X019180Y016169D01*
X019180Y018769D01*
X019165Y018977D02*
X019646Y018977D01*
X019547Y019076D02*
X019246Y019076D01*
X019246Y019174D02*
X019449Y019174D01*
X019350Y019273D02*
X019246Y019273D01*
X019252Y019371D02*
X019224Y019371D01*
X019153Y019470D02*
X019125Y019470D01*
X019055Y019568D02*
X018807Y019568D01*
X018709Y019667D02*
X018956Y019667D01*
X018580Y019569D02*
X018880Y019269D01*
X018896Y019204D01*
X018628Y018977D02*
X018096Y018977D01*
X018118Y018999D02*
X018048Y018929D01*
X018676Y018929D01*
X018546Y019059D01*
X018546Y019349D01*
X018560Y019363D01*
X018514Y019409D01*
X018104Y019409D01*
X018118Y019396D01*
X018171Y019267D01*
X018171Y019128D01*
X018118Y018999D01*
X018149Y019076D02*
X018546Y019076D01*
X018546Y019174D02*
X018171Y019174D01*
X018169Y019273D02*
X018546Y019273D01*
X018552Y019371D02*
X018128Y019371D01*
X018580Y019569D02*
X016280Y019569D01*
X014680Y021169D01*
X014439Y021637D02*
X020983Y021637D01*
X020983Y021538D02*
X017913Y021538D01*
X018074Y021440D02*
X020983Y021440D01*
X021003Y021341D02*
X018140Y021341D01*
X018171Y021243D02*
X021029Y021243D01*
X021056Y021144D02*
X018171Y021144D01*
X018137Y021046D02*
X021109Y021046D01*
X021165Y020947D02*
X018128Y020947D01*
X018227Y020849D02*
X021235Y020849D01*
X021333Y020750D02*
X018325Y020750D01*
X018424Y020652D02*
X021446Y020652D01*
X021617Y020553D02*
X018522Y020553D01*
X017058Y019409D02*
X016366Y019409D01*
X016846Y018929D01*
X017115Y018929D01*
X017044Y018999D01*
X016991Y019128D01*
X016991Y019267D01*
X017044Y019396D01*
X017058Y019409D01*
X017034Y019371D02*
X016404Y019371D01*
X016503Y019273D02*
X016993Y019273D01*
X016991Y019174D02*
X016601Y019174D01*
X016700Y019076D02*
X017013Y019076D01*
X017067Y018977D02*
X016798Y018977D01*
X016892Y018583D02*
X019020Y018583D01*
X019020Y018485D02*
X016991Y018485D01*
X017089Y018386D02*
X019020Y018386D01*
X019020Y018288D02*
X017188Y018288D01*
X017286Y018189D02*
X019020Y018189D01*
X019020Y018091D02*
X017385Y018091D01*
X017483Y017992D02*
X019020Y017992D01*
X019020Y017894D02*
X018038Y017894D01*
X018128Y017795D02*
X019020Y017795D01*
X019020Y017697D02*
X018169Y017697D01*
X018175Y017598D02*
X019020Y017598D01*
X019020Y017500D02*
X018157Y017500D01*
X018108Y017401D02*
X019020Y017401D01*
X019020Y017303D02*
X017991Y017303D01*
X017585Y017613D02*
X017580Y017669D01*
X015080Y020169D01*
X014680Y020169D01*
X014581Y020198D01*
X014580Y020169D01*
X012580Y018169D01*
X011780Y018169D01*
X011715Y018111D01*
X011680Y018169D01*
X009780Y018169D01*
X009280Y018669D01*
X009235Y018696D01*
X009585Y018682D02*
X012866Y018682D01*
X012768Y018583D02*
X009592Y018583D01*
X009691Y018485D02*
X012669Y018485D01*
X012571Y018386D02*
X011949Y018386D01*
X012055Y017992D02*
X017031Y017992D01*
X017129Y017894D02*
X015038Y017894D01*
X015023Y017909D02*
X014894Y017963D01*
X014275Y017963D01*
X014146Y017909D01*
X014048Y017811D01*
X013995Y017682D01*
X013995Y017543D01*
X014048Y017414D01*
X014146Y017316D01*
X014275Y017263D01*
X014894Y017263D01*
X015023Y017316D01*
X015121Y017414D01*
X015175Y017543D01*
X015175Y017682D01*
X015121Y017811D01*
X015023Y017909D01*
X015128Y017795D02*
X017041Y017795D01*
X017001Y017697D02*
X015169Y017697D01*
X015175Y017598D02*
X016995Y017598D01*
X017012Y017500D02*
X015157Y017500D01*
X015108Y017401D02*
X017061Y017401D01*
X017178Y017303D02*
X014991Y017303D01*
X015162Y016712D02*
X017007Y016712D01*
X016995Y016613D02*
X015175Y016613D01*
X015163Y016515D02*
X017006Y016515D01*
X017047Y016416D02*
X015122Y016416D01*
X015025Y016318D02*
X017144Y016318D01*
X017355Y016121D02*
X018905Y016121D01*
X018807Y016022D02*
X017453Y016022D01*
X017280Y015969D02*
X017580Y015669D01*
X017585Y015613D01*
X017129Y015333D02*
X015040Y015333D01*
X015128Y015431D02*
X017041Y015431D01*
X017000Y015530D02*
X015169Y015530D01*
X015175Y015628D02*
X016995Y015628D01*
X017013Y015727D02*
X015156Y015727D01*
X015241Y015234D02*
X018019Y015234D01*
X018040Y015333D02*
X018117Y015333D01*
X018128Y015431D02*
X018216Y015431D01*
X018169Y015530D02*
X018314Y015530D01*
X018413Y015628D02*
X018175Y015628D01*
X018156Y015727D02*
X018511Y015727D01*
X018610Y015825D02*
X018107Y015825D01*
X017988Y015924D02*
X018708Y015924D01*
X018964Y015727D02*
X021130Y015727D01*
X021123Y015628D02*
X018865Y015628D01*
X018767Y015530D02*
X021123Y015530D01*
X021123Y015431D02*
X018668Y015431D01*
X018570Y015333D02*
X021171Y015333D01*
X021229Y015825D02*
X019062Y015825D01*
X019161Y015924D02*
X021327Y015924D01*
X021001Y016022D02*
X019259Y016022D01*
X019340Y016121D02*
X020920Y016121D01*
X020920Y016219D02*
X019340Y016219D01*
X019340Y016318D02*
X020920Y016318D01*
X020920Y016416D02*
X019340Y016416D01*
X019340Y016515D02*
X020920Y016515D01*
X020920Y016613D02*
X019340Y016613D01*
X019340Y016712D02*
X020920Y016712D01*
X020920Y016810D02*
X019340Y016810D01*
X019340Y016909D02*
X020920Y016909D01*
X020920Y017007D02*
X019340Y017007D01*
X019340Y017106D02*
X020920Y017106D01*
X020920Y017204D02*
X019340Y017204D01*
X019340Y017303D02*
X020920Y017303D01*
X020920Y017401D02*
X019340Y017401D01*
X019340Y017500D02*
X020920Y017500D01*
X020920Y017598D02*
X019340Y017598D01*
X019340Y017697D02*
X020920Y017697D01*
X020828Y017795D02*
X019340Y017795D01*
X019340Y017894D02*
X020729Y017894D01*
X020631Y017992D02*
X019340Y017992D01*
X019020Y017204D02*
X012075Y017204D01*
X012075Y017303D02*
X014178Y017303D01*
X014061Y017401D02*
X012075Y017401D01*
X012036Y017500D02*
X014012Y017500D01*
X013995Y017598D02*
X011937Y017598D01*
X011893Y017795D02*
X014041Y017795D01*
X014001Y017697D02*
X007340Y017697D01*
X007340Y017795D02*
X011537Y017795D01*
X011423Y017894D02*
X007340Y017894D01*
X007340Y017992D02*
X011375Y017992D01*
X011481Y018386D02*
X009789Y018386D01*
X009534Y018189D02*
X007340Y018189D01*
X007340Y018091D02*
X009632Y018091D01*
X009435Y018288D02*
X007340Y018288D01*
X007340Y018386D02*
X009050Y018386D01*
X008951Y018485D02*
X007340Y018485D01*
X007340Y018583D02*
X008885Y018583D01*
X008885Y018682D02*
X007340Y018682D01*
X007340Y018780D02*
X008885Y018780D01*
X008923Y018879D02*
X007340Y018879D01*
X007340Y018977D02*
X009022Y018977D01*
X009449Y018977D02*
X013162Y018977D01*
X013063Y018879D02*
X009547Y018879D01*
X009585Y018780D02*
X012965Y018780D01*
X013220Y018583D02*
X016440Y018583D01*
X016538Y018485D02*
X013122Y018485D01*
X013023Y018386D02*
X016637Y018386D01*
X016735Y018288D02*
X012925Y018288D01*
X012826Y018189D02*
X016834Y018189D01*
X016932Y018091D02*
X012728Y018091D01*
X012007Y017894D02*
X014131Y017894D01*
X014271Y018848D02*
X014143Y018901D01*
X014044Y018999D01*
X013991Y019128D01*
X013991Y019267D01*
X014044Y019396D01*
X014143Y019494D01*
X014271Y019548D01*
X014891Y019548D01*
X015019Y019494D01*
X015118Y019396D01*
X015171Y019267D01*
X015171Y019128D01*
X015118Y018999D01*
X015019Y018901D01*
X014891Y018848D01*
X014271Y018848D01*
X014196Y018879D02*
X013516Y018879D01*
X013614Y018977D02*
X014067Y018977D01*
X014013Y019076D02*
X013713Y019076D01*
X013811Y019174D02*
X013991Y019174D01*
X013993Y019273D02*
X013910Y019273D01*
X014008Y019371D02*
X014034Y019371D01*
X014107Y019470D02*
X014118Y019470D01*
X014205Y019568D02*
X015455Y019568D01*
X015553Y019470D02*
X015044Y019470D01*
X015128Y019371D02*
X015652Y019371D01*
X015750Y019273D02*
X015169Y019273D01*
X015171Y019174D02*
X015849Y019174D01*
X015947Y019076D02*
X015149Y019076D01*
X015096Y018977D02*
X016046Y018977D01*
X016144Y018879D02*
X014966Y018879D01*
X015356Y019667D02*
X014304Y019667D01*
X014402Y019765D02*
X015258Y019765D01*
X015159Y019864D02*
X014930Y019864D01*
X013654Y019470D02*
X007340Y019470D01*
X007340Y019371D02*
X013556Y019371D01*
X013457Y019273D02*
X007340Y019273D01*
X007340Y019174D02*
X013359Y019174D01*
X013260Y019076D02*
X007340Y019076D01*
X007020Y019076D02*
X004574Y019076D01*
X004614Y019174D02*
X007020Y019174D01*
X007020Y019273D02*
X004615Y019273D01*
X004591Y019371D02*
X007020Y019371D01*
X007020Y019470D02*
X004535Y019470D01*
X004492Y018977D02*
X005439Y018977D01*
X005491Y018999D02*
X005380Y018953D01*
X005296Y018869D01*
X005250Y018758D01*
X005250Y018639D01*
X005296Y018529D01*
X005305Y018520D01*
X005214Y018429D01*
X004567Y018429D01*
X004562Y018443D01*
X004463Y018542D01*
X004334Y018595D01*
X003715Y018595D01*
X003587Y018542D01*
X003488Y018443D01*
X003435Y018314D01*
X003435Y018175D01*
X003488Y018047D01*
X003587Y017948D01*
X003715Y017895D01*
X004334Y017895D01*
X004463Y017948D01*
X004562Y018047D01*
X004588Y018109D01*
X005346Y018109D01*
X005636Y018399D01*
X005990Y018399D01*
X006100Y018444D01*
X006185Y018529D01*
X006230Y018639D01*
X006230Y018758D01*
X006185Y018869D01*
X006100Y018953D01*
X005990Y018999D01*
X005491Y018999D01*
X005306Y018879D02*
X001916Y018879D01*
X002014Y018977D02*
X003557Y018977D01*
X003476Y019076D02*
X002113Y019076D01*
X002211Y019174D02*
X003435Y019174D01*
X003435Y019273D02*
X002310Y019273D01*
X002408Y019371D02*
X003458Y019371D01*
X003515Y019470D02*
X002507Y019470D01*
X002480Y019669D02*
X007180Y019669D01*
X007020Y018977D02*
X006042Y018977D01*
X006175Y018879D02*
X007020Y018879D01*
X007020Y018780D02*
X006221Y018780D01*
X006230Y018682D02*
X007020Y018682D01*
X007020Y018583D02*
X006207Y018583D01*
X006141Y018485D02*
X007020Y018485D01*
X007020Y018386D02*
X005623Y018386D01*
X005525Y018288D02*
X007020Y018288D01*
X007020Y018189D02*
X005426Y018189D01*
X005280Y018269D02*
X004080Y018269D01*
X004025Y018245D01*
X004362Y018583D02*
X005273Y018583D01*
X005269Y018485D02*
X004520Y018485D01*
X004580Y018091D02*
X007020Y018091D01*
X007020Y017992D02*
X004507Y017992D01*
X004334Y017595D02*
X003715Y017595D01*
X003587Y017542D01*
X003488Y017443D01*
X003435Y017314D01*
X003435Y017175D01*
X003488Y017047D01*
X003587Y016948D01*
X003715Y016895D01*
X004334Y016895D01*
X004463Y016948D01*
X004524Y017009D01*
X005214Y017009D01*
X005325Y016898D01*
X005296Y016869D01*
X005250Y016758D01*
X005250Y016639D01*
X005296Y016529D01*
X005380Y016444D01*
X005491Y016399D01*
X005990Y016399D01*
X006100Y016444D01*
X006185Y016529D01*
X006230Y016639D01*
X006230Y016758D01*
X006185Y016869D01*
X006100Y016953D01*
X005990Y016999D01*
X005677Y016999D01*
X005440Y017236D01*
X005346Y017329D01*
X004609Y017329D01*
X004562Y017443D01*
X004463Y017542D01*
X004334Y017595D01*
X004505Y017500D02*
X007020Y017500D01*
X007020Y017598D02*
X000380Y017598D01*
X000380Y017500D02*
X000545Y017500D01*
X000587Y017542D02*
X000488Y017443D01*
X000435Y017314D01*
X000435Y017175D01*
X000488Y017047D01*
X000587Y016948D01*
X000715Y016895D01*
X001334Y016895D01*
X001463Y016948D01*
X001562Y017047D01*
X001615Y017175D01*
X001615Y017314D01*
X001562Y017443D01*
X001463Y017542D01*
X001334Y017595D01*
X000715Y017595D01*
X000587Y017542D01*
X000471Y017401D02*
X000380Y017401D01*
X000380Y017303D02*
X000435Y017303D01*
X000435Y017204D02*
X000380Y017204D01*
X000380Y017106D02*
X000464Y017106D01*
X000527Y017007D02*
X000380Y017007D01*
X000380Y016909D02*
X000681Y016909D01*
X000715Y016595D02*
X000587Y016542D01*
X000488Y016443D01*
X000435Y016314D01*
X000435Y016175D01*
X000488Y016047D01*
X000587Y015948D01*
X000715Y015895D01*
X001334Y015895D01*
X001463Y015948D01*
X001562Y016047D01*
X001615Y016175D01*
X001615Y016314D01*
X001562Y016443D01*
X001463Y016542D01*
X001334Y016595D01*
X000715Y016595D01*
X000560Y016515D02*
X000380Y016515D01*
X000380Y016613D02*
X005261Y016613D01*
X005250Y016712D02*
X000380Y016712D01*
X000380Y016810D02*
X005272Y016810D01*
X005314Y016909D02*
X004368Y016909D01*
X004522Y017007D02*
X005216Y017007D01*
X005280Y017169D02*
X004080Y017169D01*
X004025Y017245D01*
X003681Y016909D02*
X001368Y016909D01*
X001522Y017007D02*
X003527Y017007D01*
X003464Y017106D02*
X001586Y017106D01*
X001615Y017204D02*
X003435Y017204D01*
X003435Y017303D02*
X001615Y017303D01*
X001579Y017401D02*
X003471Y017401D01*
X003545Y017500D02*
X001505Y017500D01*
X001507Y017992D02*
X003542Y017992D01*
X003470Y018091D02*
X001580Y018091D01*
X001615Y018189D02*
X003435Y018189D01*
X003435Y018288D02*
X001615Y018288D01*
X001585Y018386D02*
X003465Y018386D01*
X003530Y018485D02*
X001522Y018485D01*
X001620Y018583D02*
X003688Y018583D01*
X004579Y017401D02*
X007020Y017401D01*
X007020Y017303D02*
X005373Y017303D01*
X005471Y017204D02*
X007020Y017204D01*
X007020Y017106D02*
X005570Y017106D01*
X005668Y017007D02*
X007020Y017007D01*
X007020Y016909D02*
X006145Y016909D01*
X006209Y016810D02*
X007020Y016810D01*
X007020Y016712D02*
X006230Y016712D01*
X006220Y016613D02*
X007020Y016613D01*
X007020Y016515D02*
X006171Y016515D01*
X006033Y016416D02*
X007020Y016416D01*
X007020Y016318D02*
X004613Y016318D01*
X004615Y016219D02*
X007020Y016219D01*
X007020Y016121D02*
X004592Y016121D01*
X004537Y016022D02*
X007101Y016022D01*
X007199Y015924D02*
X004552Y015924D01*
X004650Y015825D02*
X007298Y015825D01*
X007396Y015727D02*
X004749Y015727D01*
X004847Y015628D02*
X007495Y015628D01*
X007593Y015530D02*
X004946Y015530D01*
X005044Y015431D02*
X007692Y015431D01*
X007790Y015333D02*
X005143Y015333D01*
X005080Y015169D02*
X004080Y016169D01*
X004025Y016245D01*
X003980Y016169D01*
X001980Y016169D01*
X001080Y015269D01*
X001025Y015245D01*
X001213Y015628D02*
X000380Y015628D01*
X000380Y015530D02*
X000575Y015530D01*
X000483Y015431D02*
X000380Y015431D01*
X000380Y015333D02*
X000442Y015333D01*
X000435Y015234D02*
X000380Y015234D01*
X000380Y015136D02*
X000451Y015136D01*
X000497Y015037D02*
X000380Y015037D01*
X000380Y014939D02*
X000609Y014939D01*
X000380Y014840D02*
X004183Y014840D01*
X004281Y014742D02*
X000380Y014742D01*
X000380Y014643D02*
X004380Y014643D01*
X004455Y014545D02*
X004478Y014545D01*
X004558Y014446D02*
X004577Y014446D01*
X004601Y014348D02*
X004675Y014348D01*
X004615Y014249D02*
X004774Y014249D01*
X004880Y014369D02*
X004080Y015169D01*
X004025Y015245D01*
X004296Y015727D02*
X001764Y015727D01*
X001862Y015825D02*
X004198Y015825D01*
X003645Y015924D02*
X001961Y015924D01*
X001705Y016121D02*
X001592Y016121D01*
X001607Y016022D02*
X001537Y016022D01*
X001508Y015924D02*
X001404Y015924D01*
X001410Y015825D02*
X000380Y015825D01*
X000380Y015727D02*
X001311Y015727D01*
X001615Y016219D02*
X001804Y016219D01*
X001902Y016318D02*
X001613Y016318D01*
X001573Y016416D02*
X003477Y016416D01*
X003560Y016515D02*
X001490Y016515D01*
X000645Y015924D02*
X000380Y015924D01*
X000380Y016022D02*
X000512Y016022D01*
X000457Y016121D02*
X000380Y016121D01*
X000380Y016219D02*
X000435Y016219D01*
X000436Y016318D02*
X000380Y016318D01*
X000380Y016416D02*
X000477Y016416D01*
X000380Y017697D02*
X007020Y017697D01*
X007020Y017795D02*
X000380Y017795D01*
X000380Y017894D02*
X007020Y017894D01*
X007340Y017598D02*
X011493Y017598D01*
X011395Y017500D02*
X007340Y017500D01*
X007340Y017401D02*
X009686Y017401D01*
X009587Y017303D02*
X007340Y017303D01*
X007340Y017204D02*
X009489Y017204D01*
X009390Y017106D02*
X007340Y017106D01*
X007340Y017007D02*
X009052Y017007D01*
X008953Y016909D02*
X007340Y016909D01*
X007340Y016810D02*
X008885Y016810D01*
X008885Y016712D02*
X007340Y016712D01*
X007340Y016613D02*
X008885Y016613D01*
X008921Y016515D02*
X007340Y016515D01*
X007480Y016269D02*
X007780Y015969D01*
X017280Y015969D01*
X017585Y016613D02*
X017680Y016569D01*
X018780Y016569D01*
X018809Y016600D01*
X018995Y016909D02*
X019020Y016909D01*
X019020Y017007D02*
X011920Y017007D01*
X012019Y017106D02*
X019020Y017106D01*
X019004Y016219D02*
X007756Y016219D01*
X007725Y016318D02*
X014144Y016318D01*
X014047Y016416D02*
X009451Y016416D01*
X009549Y016515D02*
X014006Y016515D01*
X013995Y016613D02*
X009585Y016613D01*
X009585Y016712D02*
X014007Y016712D01*
X014048Y016811D02*
X014146Y016909D01*
X014047Y015809D02*
X007766Y015809D01*
X008246Y015329D01*
X014133Y015329D01*
X014048Y015414D01*
X013995Y015543D01*
X013995Y015682D01*
X014047Y015809D01*
X014013Y015727D02*
X007849Y015727D01*
X007947Y015628D02*
X013995Y015628D01*
X014000Y015530D02*
X008046Y015530D01*
X008144Y015431D02*
X014041Y015431D01*
X014129Y015333D02*
X008243Y015333D01*
X007987Y015136D02*
X007923Y015136D01*
X007889Y015234D02*
X007541Y015234D01*
X007384Y014939D02*
X006100Y014939D01*
X006100Y014840D02*
X007400Y014840D01*
X007400Y014742D02*
X006100Y014742D01*
X006075Y014643D02*
X007426Y014643D01*
X007524Y014545D02*
X005976Y014545D01*
X006180Y014369D02*
X004880Y014369D01*
X004931Y014545D02*
X005524Y014545D01*
X005426Y014643D02*
X004832Y014643D01*
X004734Y014742D02*
X005400Y014742D01*
X005400Y014840D02*
X004635Y014840D01*
X004537Y014939D02*
X005400Y014939D01*
X006180Y014369D02*
X007480Y013069D01*
X007566Y013030D01*
X007330Y012772D02*
X000380Y012772D01*
X000380Y012870D02*
X007231Y012870D01*
X007216Y012969D02*
X004484Y012969D01*
X004570Y013067D02*
X005565Y013067D01*
X005594Y013038D02*
X005884Y013038D01*
X006089Y013243D01*
X006089Y013533D01*
X005884Y013738D01*
X005594Y013738D01*
X005389Y013533D01*
X005389Y013243D01*
X005594Y013038D01*
X005467Y013166D02*
X004611Y013166D01*
X004615Y013264D02*
X005389Y013264D01*
X005389Y013363D02*
X004595Y013363D01*
X004543Y013461D02*
X005389Y013461D01*
X005415Y013560D02*
X004419Y013560D01*
X004469Y013954D02*
X006369Y013954D01*
X006271Y014052D02*
X004564Y014052D01*
X004605Y014151D02*
X006172Y014151D01*
X006428Y014348D02*
X007975Y014348D01*
X007877Y014446D02*
X006329Y014446D01*
X006526Y014249D02*
X008074Y014249D01*
X008172Y014151D02*
X006625Y014151D01*
X006723Y014052D02*
X008271Y014052D01*
X008369Y013954D02*
X006822Y013954D01*
X006920Y013855D02*
X008468Y013855D01*
X008566Y013757D02*
X007019Y013757D01*
X007117Y013658D02*
X008665Y013658D01*
X008763Y013560D02*
X007216Y013560D01*
X007314Y013461D02*
X008862Y013461D01*
X008960Y013363D02*
X007729Y013363D01*
X007216Y013067D02*
X005913Y013067D01*
X006011Y013166D02*
X007157Y013166D01*
X007059Y013264D02*
X006089Y013264D01*
X006089Y013363D02*
X006960Y013363D01*
X006862Y013461D02*
X006089Y013461D01*
X006063Y013560D02*
X006763Y013560D01*
X006665Y013658D02*
X005964Y013658D01*
X005514Y013658D02*
X000380Y013658D01*
X000380Y013560D02*
X000631Y013560D01*
X000506Y013461D02*
X000380Y013461D01*
X000380Y013363D02*
X000455Y013363D01*
X000435Y013264D02*
X000380Y013264D01*
X000380Y013166D02*
X000439Y013166D01*
X000479Y013067D02*
X000380Y013067D01*
X000380Y012969D02*
X000566Y012969D01*
X000380Y012673D02*
X013995Y012673D01*
X013995Y012575D02*
X004383Y012575D01*
X004528Y012476D02*
X014022Y012476D01*
X014084Y012378D02*
X013196Y012378D01*
X013343Y012279D02*
X014235Y012279D01*
X014580Y011669D02*
X014585Y011613D01*
X014580Y011669D02*
X013380Y011669D01*
X012980Y012069D01*
X012919Y012089D01*
X013036Y011787D02*
X009900Y011787D01*
X009900Y011688D02*
X013135Y011688D01*
X013233Y011590D02*
X009900Y011590D01*
X009820Y011885D02*
X012508Y011885D01*
X012448Y011984D02*
X009722Y011984D01*
X009379Y011984D02*
X007722Y011984D01*
X007820Y011885D02*
X009281Y011885D01*
X009200Y011787D02*
X007900Y011787D01*
X007900Y011688D02*
X009200Y011688D01*
X009200Y011590D02*
X007900Y011590D01*
X007877Y011491D02*
X009224Y011491D01*
X009323Y011393D02*
X007778Y011393D01*
X007200Y011787D02*
X000380Y011787D01*
X000380Y011885D02*
X007281Y011885D01*
X007379Y011984D02*
X004499Y011984D01*
X004576Y012082D02*
X012429Y012082D01*
X012442Y012181D02*
X004615Y012181D01*
X004615Y012279D02*
X012494Y012279D01*
X012641Y012378D02*
X004589Y012378D01*
X004346Y011590D02*
X005445Y011590D01*
X005389Y011491D02*
X004513Y011491D01*
X004582Y011393D02*
X005389Y011393D01*
X005389Y011294D02*
X004615Y011294D01*
X004615Y011196D02*
X005437Y011196D01*
X005535Y011097D02*
X004583Y011097D01*
X004080Y011169D02*
X004025Y011245D01*
X004080Y011169D02*
X004980Y010269D01*
X006877Y008241D02*
X008141Y008241D01*
X008100Y008142D02*
X006918Y008142D01*
X006930Y008044D02*
X008088Y008044D01*
X008091Y007945D02*
X006927Y007945D01*
X006886Y007847D02*
X008131Y007847D01*
X008204Y007748D02*
X006813Y007748D01*
X006659Y007650D02*
X008358Y007650D01*
X008263Y008376D02*
X008412Y008438D01*
X008847Y009029D02*
X009794Y009029D01*
X009696Y009127D02*
X008748Y009127D01*
X008650Y009226D02*
X009597Y009226D01*
X009499Y009324D02*
X008551Y009324D01*
X008477Y009399D02*
X009164Y009399D01*
X009313Y009461D01*
X009338Y009485D01*
X010320Y008503D01*
X010414Y008409D01*
X010552Y008271D01*
X010552Y008224D01*
X010146Y008629D01*
X010014Y008629D01*
X009246Y008629D01*
X008477Y009399D01*
X008788Y009804D02*
X008880Y009769D01*
X009280Y009769D01*
X010480Y008569D01*
X010385Y008438D02*
X010338Y008438D01*
X010287Y008536D02*
X010239Y008536D01*
X010188Y008635D02*
X009241Y008635D01*
X009142Y008733D02*
X010090Y008733D01*
X009991Y008832D02*
X009044Y008832D01*
X008945Y008930D02*
X009893Y008930D01*
X010148Y009127D02*
X013912Y009127D01*
X013813Y009029D02*
X010247Y009029D01*
X010345Y008930D02*
X013715Y008930D01*
X013616Y008832D02*
X010444Y008832D01*
X010542Y008733D02*
X013518Y008733D01*
X014010Y009226D02*
X010050Y009226D01*
X009951Y009324D02*
X014109Y009324D01*
X014044Y009423D02*
X009853Y009423D01*
X009754Y009521D02*
X014004Y009521D01*
X013995Y009620D02*
X009656Y009620D01*
X009557Y009718D02*
X014009Y009718D01*
X014054Y009817D02*
X013234Y009817D01*
X012919Y010089D02*
X012980Y010169D01*
X013380Y010569D01*
X014580Y010569D01*
X014585Y010613D01*
X014162Y010309D02*
X013346Y010309D01*
X013445Y010408D02*
X014054Y010408D01*
X012524Y010309D02*
X007566Y010309D01*
X007665Y010211D02*
X012454Y010211D01*
X012429Y010112D02*
X009349Y010112D01*
X009435Y010014D02*
X012435Y010014D01*
X012478Y009915D02*
X009476Y009915D01*
X009489Y009817D02*
X012603Y009817D01*
X010484Y008339D02*
X010436Y008339D01*
X010535Y008241D02*
X010552Y008241D01*
X010194Y008129D02*
X010144Y008129D01*
X009482Y008129D01*
X009427Y008262D01*
X009380Y008309D01*
X010014Y008309D01*
X010194Y008129D01*
X010181Y008142D02*
X009477Y008142D01*
X009436Y008241D02*
X010082Y008241D01*
X010205Y007748D02*
X009372Y007748D01*
X009218Y007650D02*
X010303Y007650D01*
X011410Y006913D02*
X011410Y006573D01*
X011570Y006733D01*
X011590Y006733D01*
X011410Y006913D01*
X011410Y006862D02*
X011461Y006862D01*
X011410Y006763D02*
X011560Y006763D01*
X011502Y006665D02*
X011410Y006665D01*
X011410Y006172D02*
X011431Y006172D01*
X011410Y006074D02*
X011530Y006074D01*
X011410Y003435D02*
X011416Y003429D01*
X011410Y003429D01*
X011410Y003435D01*
X011174Y003119D02*
X011160Y003119D01*
X011160Y003020D02*
X024384Y003020D01*
X024384Y002922D02*
X011160Y002922D01*
X011160Y002823D02*
X011729Y002823D01*
X011765Y002860D02*
X011525Y002620D01*
X011525Y002280D01*
X011765Y002040D01*
X012105Y002040D01*
X012345Y002280D01*
X012345Y002620D01*
X012105Y002860D01*
X011765Y002860D01*
X011630Y002725D02*
X011160Y002725D01*
X011160Y002626D02*
X011532Y002626D01*
X011525Y002528D02*
X011160Y002528D01*
X011160Y002429D02*
X011525Y002429D01*
X011525Y002331D02*
X011160Y002331D01*
X011160Y002232D02*
X011573Y002232D01*
X011672Y002134D02*
X011160Y002134D01*
X011160Y002035D02*
X024384Y002035D01*
X024384Y001937D02*
X011160Y001937D01*
X011160Y001838D02*
X011744Y001838D01*
X011765Y001860D02*
X011525Y001620D01*
X011525Y001280D01*
X011765Y001040D01*
X012105Y001040D01*
X012345Y001280D01*
X012345Y001620D01*
X012105Y001860D01*
X011765Y001860D01*
X011645Y001740D02*
X011160Y001740D01*
X011160Y001641D02*
X011547Y001641D01*
X011525Y001543D02*
X011160Y001543D01*
X011160Y001444D02*
X011525Y001444D01*
X011525Y001346D02*
X011160Y001346D01*
X011160Y001247D02*
X011558Y001247D01*
X011657Y001149D02*
X011160Y001149D01*
X011160Y001050D02*
X011755Y001050D01*
X012115Y001050D02*
X012755Y001050D01*
X012765Y001040D02*
X013105Y001040D01*
X013345Y001280D01*
X013345Y001620D01*
X013105Y001860D01*
X012765Y001860D01*
X012525Y001620D01*
X012525Y001280D01*
X012765Y001040D01*
X012657Y001149D02*
X012214Y001149D01*
X012312Y001247D02*
X012558Y001247D01*
X012525Y001346D02*
X012345Y001346D01*
X012345Y001444D02*
X012525Y001444D01*
X012525Y001543D02*
X012345Y001543D01*
X012324Y001641D02*
X012547Y001641D01*
X012645Y001740D02*
X012225Y001740D01*
X012127Y001838D02*
X012744Y001838D01*
X012765Y002040D02*
X013105Y002040D01*
X013345Y002280D01*
X013345Y002620D01*
X013105Y002860D01*
X012765Y002860D01*
X012525Y002620D01*
X012525Y002280D01*
X012765Y002040D01*
X012672Y002134D02*
X012199Y002134D01*
X012297Y002232D02*
X012573Y002232D01*
X012525Y002331D02*
X012345Y002331D01*
X012345Y002429D02*
X012525Y002429D01*
X012525Y002528D02*
X012345Y002528D01*
X012339Y002626D02*
X012532Y002626D01*
X012630Y002725D02*
X012240Y002725D01*
X012142Y002823D02*
X012729Y002823D01*
X013142Y002823D02*
X013729Y002823D01*
X013630Y002725D02*
X013240Y002725D01*
X013339Y002626D02*
X013532Y002626D01*
X013525Y002528D02*
X013345Y002528D01*
X013345Y002429D02*
X013525Y002429D01*
X013525Y002331D02*
X013345Y002331D01*
X013297Y002232D02*
X013573Y002232D01*
X013672Y002134D02*
X013199Y002134D01*
X013127Y001838D02*
X013744Y001838D01*
X013645Y001740D02*
X013225Y001740D01*
X013324Y001641D02*
X013547Y001641D01*
X013525Y001543D02*
X013345Y001543D01*
X013345Y001444D02*
X013525Y001444D01*
X013525Y001346D02*
X013345Y001346D01*
X013312Y001247D02*
X013558Y001247D01*
X013657Y001149D02*
X013214Y001149D01*
X013115Y001050D02*
X013755Y001050D01*
X011160Y000952D02*
X024384Y000952D01*
X024384Y001050D02*
X024115Y001050D01*
X024105Y001040D02*
X024345Y001280D01*
X024345Y001620D01*
X024105Y001860D01*
X023765Y001860D01*
X023525Y001620D01*
X023525Y001280D01*
X023765Y001040D01*
X024105Y001040D01*
X024214Y001149D02*
X024384Y001149D01*
X024384Y001247D02*
X024312Y001247D01*
X024345Y001346D02*
X024384Y001346D01*
X024384Y001444D02*
X024345Y001444D01*
X024345Y001543D02*
X024384Y001543D01*
X024384Y001641D02*
X024324Y001641D01*
X024384Y001740D02*
X024225Y001740D01*
X024127Y001838D02*
X024384Y001838D01*
X024105Y002040D02*
X024345Y002280D01*
X024345Y002620D01*
X024105Y002860D01*
X023765Y002860D01*
X023525Y002620D01*
X023525Y002280D01*
X023765Y002040D01*
X024105Y002040D01*
X024199Y002134D02*
X024384Y002134D01*
X024384Y002232D02*
X024297Y002232D01*
X024345Y002331D02*
X024384Y002331D01*
X024384Y002429D02*
X024345Y002429D01*
X024345Y002528D02*
X024384Y002528D01*
X024384Y002626D02*
X024339Y002626D01*
X024384Y002725D02*
X024240Y002725D01*
X024142Y002823D02*
X024384Y002823D01*
X023729Y002823D02*
X023142Y002823D01*
X023105Y002860D02*
X022765Y002860D01*
X022525Y002620D01*
X022525Y002280D01*
X022765Y002040D01*
X023105Y002040D01*
X023345Y002280D01*
X023345Y002620D01*
X023105Y002860D01*
X023240Y002725D02*
X023630Y002725D01*
X023532Y002626D02*
X023339Y002626D01*
X023345Y002528D02*
X023525Y002528D01*
X023525Y002429D02*
X023345Y002429D01*
X023345Y002331D02*
X023525Y002331D01*
X023573Y002232D02*
X023297Y002232D01*
X023199Y002134D02*
X023672Y002134D01*
X023744Y001838D02*
X023127Y001838D01*
X023105Y001860D02*
X022765Y001860D01*
X022525Y001620D01*
X022525Y001280D01*
X022765Y001040D01*
X023105Y001040D01*
X023345Y001280D01*
X023345Y001620D01*
X023105Y001860D01*
X023225Y001740D02*
X023645Y001740D01*
X023547Y001641D02*
X023324Y001641D01*
X023345Y001543D02*
X023525Y001543D01*
X023525Y001444D02*
X023345Y001444D01*
X023345Y001346D02*
X023525Y001346D01*
X023558Y001247D02*
X023312Y001247D01*
X023214Y001149D02*
X023657Y001149D01*
X023755Y001050D02*
X023115Y001050D01*
X022755Y001050D02*
X022115Y001050D01*
X022105Y001040D02*
X022345Y001280D01*
X022345Y001620D01*
X022105Y001860D01*
X021765Y001860D01*
X021525Y001620D01*
X021525Y001280D01*
X021765Y001040D01*
X022105Y001040D01*
X022214Y001149D02*
X022657Y001149D01*
X022558Y001247D02*
X022312Y001247D01*
X022345Y001346D02*
X022525Y001346D01*
X022525Y001444D02*
X022345Y001444D01*
X022345Y001543D02*
X022525Y001543D01*
X022547Y001641D02*
X022324Y001641D01*
X022225Y001740D02*
X022645Y001740D01*
X022744Y001838D02*
X022127Y001838D01*
X022105Y002040D02*
X022345Y002280D01*
X022345Y002620D01*
X022105Y002860D01*
X021765Y002860D01*
X021525Y002620D01*
X021525Y002280D01*
X021765Y002040D01*
X022105Y002040D01*
X022199Y002134D02*
X022672Y002134D01*
X022573Y002232D02*
X022297Y002232D01*
X022345Y002331D02*
X022525Y002331D01*
X022525Y002429D02*
X022345Y002429D01*
X022345Y002528D02*
X022525Y002528D01*
X022532Y002626D02*
X022339Y002626D01*
X022240Y002725D02*
X022630Y002725D01*
X022729Y002823D02*
X022142Y002823D01*
X021729Y002823D02*
X021142Y002823D01*
X021105Y002860D02*
X020765Y002860D01*
X020525Y002620D01*
X020525Y002280D01*
X020765Y002040D01*
X021105Y002040D01*
X021345Y002280D01*
X021345Y002620D01*
X021105Y002860D01*
X021240Y002725D02*
X021630Y002725D01*
X021532Y002626D02*
X021339Y002626D01*
X021345Y002528D02*
X021525Y002528D01*
X021525Y002429D02*
X021345Y002429D01*
X021345Y002331D02*
X021525Y002331D01*
X021573Y002232D02*
X021297Y002232D01*
X021199Y002134D02*
X021672Y002134D01*
X021744Y001838D02*
X021127Y001838D01*
X021105Y001860D02*
X020765Y001860D01*
X020525Y001620D01*
X020525Y001280D01*
X020765Y001040D01*
X021105Y001040D01*
X021345Y001280D01*
X021345Y001620D01*
X021105Y001860D01*
X021225Y001740D02*
X021645Y001740D01*
X021547Y001641D02*
X021324Y001641D01*
X021345Y001543D02*
X021525Y001543D01*
X021525Y001444D02*
X021345Y001444D01*
X021345Y001346D02*
X021525Y001346D01*
X021558Y001247D02*
X021312Y001247D01*
X021214Y001149D02*
X021657Y001149D01*
X021755Y001050D02*
X021115Y001050D01*
X020755Y001050D02*
X020115Y001050D01*
X020214Y001149D02*
X020657Y001149D01*
X020558Y001247D02*
X020312Y001247D01*
X020345Y001346D02*
X020525Y001346D01*
X020525Y001444D02*
X020345Y001444D01*
X020345Y001543D02*
X020525Y001543D01*
X020547Y001641D02*
X020324Y001641D01*
X020225Y001740D02*
X020645Y001740D01*
X020744Y001838D02*
X020127Y001838D01*
X020199Y002134D02*
X020672Y002134D01*
X020573Y002232D02*
X020297Y002232D01*
X020345Y002331D02*
X020525Y002331D01*
X020525Y002429D02*
X020345Y002429D01*
X020345Y002528D02*
X020525Y002528D01*
X020532Y002626D02*
X020339Y002626D01*
X020240Y002725D02*
X020630Y002725D01*
X020729Y002823D02*
X020142Y002823D01*
X016956Y013067D02*
X010204Y013067D01*
X010303Y013166D02*
X016857Y013166D01*
X016759Y013264D02*
X014898Y013264D01*
X014894Y013263D02*
X015023Y013316D01*
X015121Y013414D01*
X015175Y013543D01*
X015175Y013682D01*
X015121Y013811D01*
X015023Y013909D01*
X014894Y013963D01*
X014275Y013963D01*
X014146Y013909D01*
X014048Y013811D01*
X013995Y013682D01*
X013995Y013543D01*
X014048Y013414D01*
X014146Y013316D01*
X014275Y013263D01*
X014894Y013263D01*
X015070Y013363D02*
X016660Y013363D01*
X016562Y013461D02*
X015141Y013461D01*
X015175Y013560D02*
X016463Y013560D01*
X016365Y013658D02*
X015175Y013658D01*
X015144Y013757D02*
X016266Y013757D01*
X016168Y013855D02*
X015077Y013855D01*
X014916Y013954D02*
X016069Y013954D01*
X015971Y014052D02*
X013238Y014052D01*
X013238Y013954D02*
X014254Y013954D01*
X014092Y013855D02*
X013223Y013855D01*
X013238Y013871D02*
X013033Y013666D01*
X012743Y013666D01*
X012538Y013871D01*
X012538Y014161D01*
X012743Y014366D01*
X013033Y014366D01*
X013238Y014161D01*
X013238Y013871D01*
X013124Y013757D02*
X014025Y013757D01*
X013995Y013658D02*
X010795Y013658D01*
X010697Y013560D02*
X013995Y013560D01*
X014028Y013461D02*
X010598Y013461D01*
X010500Y013363D02*
X014099Y013363D01*
X014271Y013264D02*
X010401Y013264D01*
X010047Y013363D02*
X009729Y013363D01*
X009827Y013264D02*
X009949Y013264D01*
X011124Y013757D02*
X012653Y013757D01*
X012554Y013855D02*
X011223Y013855D01*
X011238Y013954D02*
X012538Y013954D01*
X012538Y014052D02*
X011238Y014052D01*
X011238Y014151D02*
X012538Y014151D01*
X012627Y014249D02*
X011150Y014249D01*
X011051Y014348D02*
X012725Y014348D01*
X013051Y014348D02*
X014114Y014348D01*
X014146Y014316D02*
X014275Y014263D01*
X014894Y014263D01*
X015023Y014316D01*
X015121Y014414D01*
X015175Y014543D01*
X015175Y014682D01*
X015121Y014811D01*
X015023Y014909D01*
X014894Y014963D01*
X014275Y014963D01*
X014146Y014909D01*
X014048Y014811D01*
X013995Y014682D01*
X013995Y014543D01*
X014048Y014414D01*
X014146Y014316D01*
X014035Y014446D02*
X008329Y014446D01*
X008428Y014348D02*
X010725Y014348D01*
X013150Y014249D02*
X015774Y014249D01*
X015872Y014151D02*
X013238Y014151D01*
X013995Y014545D02*
X008231Y014545D01*
X008132Y014643D02*
X013995Y014643D01*
X014019Y014742D02*
X008100Y014742D01*
X008100Y014840D02*
X014077Y014840D01*
X014217Y014939D02*
X008100Y014939D01*
X008086Y015037D02*
X008022Y015037D01*
X007679Y016416D02*
X009020Y016416D01*
X009235Y016696D02*
X009280Y016769D01*
X009780Y017269D01*
X011680Y017269D01*
X011715Y017311D01*
X011510Y017007D02*
X009744Y017007D01*
X009843Y017106D02*
X011411Y017106D01*
X013319Y018682D02*
X016341Y018682D01*
X016243Y018780D02*
X013417Y018780D01*
X011016Y020849D02*
X010886Y020849D01*
X010681Y021243D02*
X010580Y021243D01*
X010678Y021341D02*
X010681Y021341D01*
X010439Y021555D02*
X010494Y021609D01*
X010385Y021609D01*
X010439Y021555D01*
X010580Y021769D02*
X011080Y022269D01*
X011111Y022275D01*
X010708Y022425D02*
X010515Y022425D01*
X010541Y022326D02*
X010681Y022326D01*
X010681Y022228D02*
X010541Y022228D01*
X010517Y022129D02*
X010706Y022129D01*
X010615Y022031D02*
X010476Y022031D01*
X010517Y021932D02*
X010377Y021932D01*
X010580Y021769D02*
X002580Y021769D01*
X001080Y020269D01*
X001025Y020245D01*
X001477Y019962D02*
X001547Y019962D01*
X001567Y020061D02*
X003482Y020061D01*
X003441Y020159D02*
X001608Y020159D01*
X001615Y020258D02*
X003435Y020258D01*
X003452Y020356D02*
X001597Y020356D01*
X001550Y020455D02*
X003500Y020455D01*
X003615Y020553D02*
X001590Y020553D01*
X001689Y020652D02*
X005391Y020652D01*
X005391Y020553D02*
X004435Y020553D01*
X004550Y020455D02*
X005391Y020455D01*
X005473Y020356D02*
X004597Y020356D01*
X004615Y020258D02*
X005571Y020258D01*
X005413Y020750D02*
X001787Y020750D01*
X001704Y019667D02*
X002251Y019667D01*
X002153Y019568D02*
X001605Y019568D01*
X001535Y019470D02*
X002054Y019470D01*
X001956Y019371D02*
X001591Y019371D01*
X001615Y019273D02*
X001857Y019273D01*
X001759Y019174D02*
X001614Y019174D01*
X001574Y019076D02*
X001660Y019076D01*
X001562Y018977D02*
X001492Y018977D01*
X001463Y018879D02*
X000380Y018879D01*
X000380Y018977D02*
X000557Y018977D01*
X000476Y019076D02*
X000380Y019076D01*
X000380Y019174D02*
X000435Y019174D01*
X000435Y019273D02*
X000380Y019273D01*
X000380Y019371D02*
X000458Y019371D01*
X000515Y019470D02*
X000380Y019470D01*
X000380Y019568D02*
X000651Y019568D01*
X000380Y018780D02*
X001365Y018780D01*
X001266Y018682D02*
X000380Y018682D01*
X000380Y018583D02*
X000688Y018583D01*
X000530Y018485D02*
X000380Y018485D01*
X000380Y018386D02*
X000465Y018386D01*
X000435Y018288D02*
X000380Y018288D01*
X000380Y018189D02*
X000435Y018189D01*
X000470Y018091D02*
X000380Y018091D01*
X000380Y017992D02*
X000542Y017992D01*
X001025Y018245D02*
X001080Y018269D01*
X002480Y019669D01*
X001817Y018780D02*
X005259Y018780D01*
X005250Y018682D02*
X001719Y018682D01*
X000588Y020947D02*
X000380Y020947D01*
X000380Y021046D02*
X000489Y021046D01*
X000448Y021144D02*
X000380Y021144D01*
X000380Y021243D02*
X000435Y021243D01*
X000446Y021341D02*
X000380Y021341D01*
X000380Y021440D02*
X000487Y021440D01*
X000583Y021538D02*
X000380Y021538D01*
X000380Y022819D02*
X024384Y022819D01*
X024384Y022917D02*
X000380Y022917D01*
X004608Y020159D02*
X008744Y020159D01*
X008645Y020061D02*
X004567Y020061D01*
X005680Y018669D02*
X005740Y018699D01*
X005680Y018669D02*
X005280Y018269D01*
X005280Y017169D02*
X005680Y016769D01*
X005740Y016699D01*
X005448Y016416D02*
X004573Y016416D01*
X004490Y016515D02*
X005310Y016515D01*
X006468Y013855D02*
X000380Y013855D01*
X000380Y013757D02*
X006566Y013757D01*
X007763Y010112D02*
X008228Y010112D01*
X008141Y010014D02*
X007862Y010014D01*
X007960Y009915D02*
X008100Y009915D01*
X008088Y009817D02*
X008059Y009817D01*
X009222Y009423D02*
X009400Y009423D01*
X015055Y014348D02*
X015675Y014348D01*
X015577Y014446D02*
X015134Y014446D01*
X015175Y014545D02*
X015478Y014545D01*
X015380Y014643D02*
X015175Y014643D01*
X015150Y014742D02*
X015281Y014742D01*
X015183Y014840D02*
X015092Y014840D01*
X015084Y014939D02*
X014952Y014939D01*
X015340Y015136D02*
X017920Y015136D01*
X017822Y015037D02*
X015438Y015037D01*
X015537Y014939D02*
X017217Y014939D01*
X017077Y014840D02*
X015635Y014840D01*
X015734Y014742D02*
X017019Y014742D01*
X016995Y014643D02*
X015832Y014643D01*
X015931Y014545D02*
X016995Y014545D01*
X017035Y014446D02*
X016029Y014446D01*
X016325Y014151D02*
X021273Y014151D01*
X021794Y014151D02*
X024384Y014151D01*
X024384Y014249D02*
X021893Y014249D01*
X021943Y014348D02*
X024384Y014348D01*
X024384Y014446D02*
X021943Y014446D01*
X022870Y015727D02*
X024384Y015727D01*
X024384Y015825D02*
X022969Y015825D01*
X023063Y015924D02*
X024384Y015924D01*
X024384Y016022D02*
X023063Y016022D01*
X023063Y016121D02*
X024384Y016121D01*
X024384Y016219D02*
X023063Y016219D01*
X023005Y016318D02*
X024384Y016318D01*
X024384Y016416D02*
X022907Y016416D01*
X022823Y016760D02*
X023063Y017000D01*
X023063Y017340D01*
X022823Y017580D01*
X022484Y017580D01*
X022243Y017340D01*
X022243Y017000D01*
X022484Y016760D01*
X022823Y016760D01*
X022874Y016810D02*
X024384Y016810D01*
X024384Y016712D02*
X021943Y016712D01*
X021943Y016613D02*
X024384Y016613D01*
X024384Y016515D02*
X021943Y016515D01*
X021900Y016416D02*
X022400Y016416D01*
X022433Y016810D02*
X021933Y016810D01*
X021834Y016909D02*
X022335Y016909D01*
X022243Y017007D02*
X021736Y017007D01*
X021706Y017303D02*
X022243Y017303D01*
X022243Y017204D02*
X021240Y017204D01*
X021240Y017106D02*
X022243Y017106D01*
X022305Y017401D02*
X021805Y017401D01*
X021903Y017500D02*
X022403Y017500D01*
X022430Y017894D02*
X021929Y017894D01*
X021943Y017795D02*
X024384Y017795D01*
X024384Y017697D02*
X021943Y017697D01*
X021943Y017598D02*
X024384Y017598D01*
X024384Y017500D02*
X022903Y017500D01*
X023002Y017401D02*
X024384Y017401D01*
X024384Y017303D02*
X023063Y017303D01*
X023063Y017204D02*
X024384Y017204D01*
X024384Y017106D02*
X023063Y017106D01*
X023063Y017007D02*
X024384Y017007D01*
X024384Y016909D02*
X022972Y016909D01*
X022877Y017894D02*
X024384Y017894D01*
X024384Y017992D02*
X022976Y017992D01*
X023063Y018091D02*
X024384Y018091D01*
X024384Y018189D02*
X023063Y018189D01*
X023063Y018288D02*
X024384Y018288D01*
X024384Y018386D02*
X023063Y018386D01*
X022998Y018485D02*
X024384Y018485D01*
X024384Y018583D02*
X022900Y018583D01*
X022407Y018583D02*
X021907Y018583D01*
X021943Y018682D02*
X024384Y018682D01*
X024384Y018780D02*
X021943Y018780D01*
X021943Y018879D02*
X024384Y018879D01*
X024384Y018977D02*
X021926Y018977D01*
X021827Y019076D02*
X024384Y019076D01*
X024384Y019174D02*
X021729Y019174D01*
X021808Y018485D02*
X022308Y018485D01*
X022243Y018386D02*
X021710Y018386D01*
X021262Y017401D02*
X021240Y017401D01*
X021240Y017303D02*
X021361Y017303D01*
X021331Y017007D02*
X021240Y017007D01*
X021240Y016344D02*
X021240Y016329D01*
X021254Y016329D01*
X021240Y016344D01*
X018596Y016318D02*
X018025Y016318D01*
X017146Y016909D02*
X017048Y016811D01*
X016423Y014052D02*
X024384Y014052D01*
X020991Y021735D02*
X014340Y021735D01*
X014242Y021834D02*
X021018Y021834D01*
X011851Y022622D02*
X011372Y022622D01*
X011471Y022523D02*
X011752Y022523D01*
X010851Y022622D02*
X010372Y022622D01*
X010471Y022523D02*
X010752Y022523D01*
X010016Y020849D02*
X009886Y020849D01*
X000595Y014545D02*
X000380Y014545D01*
X000380Y014446D02*
X000491Y014446D01*
X000449Y014348D02*
X000380Y014348D01*
X000380Y014249D02*
X000435Y014249D01*
X000445Y014151D02*
X000380Y014151D01*
X000380Y014052D02*
X000486Y014052D01*
X000581Y013954D02*
X000380Y013954D01*
X000380Y012575D02*
X000667Y012575D01*
X000521Y012476D02*
X000380Y012476D01*
X000380Y012378D02*
X000461Y012378D01*
X000435Y012279D02*
X000380Y012279D01*
X000380Y012181D02*
X000435Y012181D01*
X000473Y012082D02*
X000380Y012082D01*
X000380Y011984D02*
X000551Y011984D01*
X000551Y010506D02*
X000380Y010506D01*
X000380Y010408D02*
X000473Y010408D01*
X000435Y010309D02*
X000380Y010309D01*
X000380Y010211D02*
X000435Y010211D01*
X000461Y010112D02*
X000380Y010112D01*
X000380Y010014D02*
X000521Y010014D01*
X000380Y009915D02*
X000666Y009915D01*
D21*
X007480Y016269D03*
M02*
