G75*
%MOIN*%
%OFA0B0*%
%FSLAX24Y24*%
%IPPOS*%
%LPD*%
%AMOC8*
5,1,8,0,0,1.08239X$1,22.5*
%
%ADD10C,0.0080*%
%ADD11C,0.0060*%
%ADD12C,0.0050*%
D10*
X000140Y007199D02*
X000140Y023169D01*
X000140Y023179D02*
X024624Y023179D01*
X024624Y000669D01*
X024620Y000649D02*
X010920Y000649D01*
X010920Y006779D01*
X010500Y007199D01*
X000140Y007199D01*
D11*
X011435Y002700D02*
X011435Y001200D01*
X011685Y000950D01*
X012185Y000950D01*
X012435Y001200D01*
X012685Y000950D01*
X013185Y000950D01*
X013435Y001200D01*
X013685Y000950D01*
X014185Y000950D01*
X014435Y001200D01*
X014685Y000950D01*
X015185Y000950D01*
X015435Y001200D01*
X015685Y000950D01*
X016185Y000950D01*
X016435Y001200D01*
X016685Y000950D01*
X017185Y000950D01*
X017435Y001200D01*
X017685Y000950D01*
X018185Y000950D01*
X018435Y001200D01*
X018685Y000950D01*
X019185Y000950D01*
X019435Y001200D01*
X019685Y000950D01*
X020185Y000950D01*
X020435Y001200D01*
X020685Y000950D01*
X021185Y000950D01*
X021435Y001200D01*
X021685Y000950D01*
X022185Y000950D01*
X022435Y001200D01*
X022685Y000950D01*
X023185Y000950D01*
X023435Y001200D01*
X023685Y000950D01*
X024185Y000950D01*
X024435Y001200D01*
X024435Y002700D01*
X024185Y002950D01*
X023685Y002950D01*
X023435Y002700D01*
X023185Y002950D01*
X022685Y002950D01*
X022435Y002700D01*
X022185Y002950D01*
X021685Y002950D01*
X021435Y002700D01*
X021185Y002950D01*
X020685Y002950D01*
X020435Y002700D01*
X020185Y002950D01*
X019685Y002950D01*
X019435Y002700D01*
X019185Y002950D01*
X018685Y002950D01*
X018435Y002700D01*
X018185Y002950D01*
X017685Y002950D01*
X017435Y002700D01*
X017185Y002950D01*
X016685Y002950D01*
X016435Y002700D01*
X016185Y002950D01*
X015685Y002950D01*
X015435Y002700D01*
X015185Y002950D01*
X014685Y002950D01*
X014435Y002700D01*
X014185Y002950D01*
X013685Y002950D01*
X013435Y002700D01*
X013185Y002950D01*
X012685Y002950D01*
X012435Y002700D01*
X012185Y002950D01*
X011685Y002950D01*
X011435Y002700D01*
D12*
X011675Y003125D02*
X011600Y003200D01*
X011600Y003275D01*
X011675Y003350D01*
X011900Y003350D01*
X011900Y003200D01*
X011825Y003125D01*
X011675Y003125D01*
X011900Y003350D02*
X011750Y003500D01*
X011600Y003575D01*
X012060Y003500D02*
X012135Y003575D01*
X012285Y003575D01*
X012360Y003500D01*
X012060Y003500D02*
X012060Y003425D01*
X012360Y003125D01*
X012060Y003125D01*
X017628Y003125D02*
X017779Y003125D01*
X017704Y003125D02*
X017704Y003575D01*
X017779Y003575D02*
X017628Y003575D01*
X017939Y003500D02*
X017939Y003350D01*
X018014Y003275D01*
X018239Y003275D01*
X018239Y003125D02*
X018239Y003575D01*
X018014Y003575D01*
X017939Y003500D01*
X018399Y003500D02*
X018474Y003575D01*
X018624Y003575D01*
X018699Y003500D01*
X018699Y003425D01*
X018624Y003350D01*
X018474Y003350D01*
X018399Y003275D01*
X018399Y003200D01*
X018474Y003125D01*
X018624Y003125D01*
X018699Y003200D01*
X018860Y003125D02*
X018860Y003425D01*
X019010Y003575D01*
X019160Y003425D01*
X019160Y003125D01*
X019320Y003125D02*
X019470Y003275D01*
X019395Y003275D02*
X019620Y003275D01*
X019620Y003125D02*
X019620Y003575D01*
X019395Y003575D01*
X019320Y003500D01*
X019320Y003350D01*
X019395Y003275D01*
X019160Y003350D02*
X018860Y003350D01*
X023760Y000325D02*
X024060Y000325D01*
X023910Y000325D02*
X023910Y000775D01*
X024060Y000625D01*
M02*
