%
M48
M72
T01C0.0130
T02C0.0240
T03C0.0320
T04C0.0354
T05C0.0394
T06C0.0400
T07C0.1300
%
T01
X7480Y16269
T02
X5740Y16699
X5740Y18699
X12919Y12089
X12919Y10089
T03
X14585Y9613
X14585Y10613
X14585Y11613
X14585Y12613
X14585Y13613
X14585Y14613
X14585Y15613
X14585Y16613
X14585Y17613
X14581Y19198
X14581Y20198
X14581Y21198
X14581Y22198
X17581Y22198
X17581Y21198
X17581Y20198
X17581Y19198
X18896Y19204
X17585Y17613
X17585Y16613
X17585Y15613
X17585Y14613
X17585Y13613
X17585Y12613
X17585Y11613
X17585Y10613
X17585Y9613
X17628Y8154
X19276Y7500
X20276Y7500
X20287Y9443
X22723Y7460
X23723Y7460
X23725Y5378
X23960Y3904
X21960Y3904
X20137Y3648
X20725Y5378
X17137Y3648
X16120Y5794
X16620Y6544
X15620Y6544
X14715Y6383
X14716Y4962
X14689Y3651
X11689Y3651
X11716Y4962
X11715Y6383
X10902Y8155
X12902Y8155
X14628Y8154
X9550Y11660
X9566Y13030
X10888Y14016
X12888Y14016
X11715Y17311
X11715Y18111
X9235Y18696
X7741Y20583
X5741Y20583
X4025Y20245
X4025Y19245
X4025Y18245
X4025Y17245
X4025Y16245
X4025Y15245
X4025Y14245
X4025Y13245
X4025Y12245
X4025Y11245
X4025Y10245
X4025Y9245
X5739Y11388
X7550Y11660
X7566Y13030
X5739Y13388
X5750Y14814
X7750Y14814
X9235Y16696
X4025Y21245
X4025Y22245
X1025Y22245
X1025Y21245
X1025Y20245
X1025Y19245
X1025Y18245
X1025Y17245
X1025Y16245
X1025Y15245
X1025Y14245
X1025Y13245
X1025Y12245
X1025Y11245
X1025Y10245
X1025Y9245
X18809Y13600
X18809Y16600
X18896Y22204
X23287Y9443
T04
X20129Y4776
X17129Y4776
X12111Y21275
X11111Y21275
X10111Y21275
X10111Y22275
X11111Y22275
X12111Y22275
T05
X6229Y8033
X6229Y9804
X8788Y9804
X8788Y8033
T06
X11935Y2450
X11935Y1450
X12935Y1450
X12935Y2450
X13935Y2450
X13935Y1450
X14935Y1450
X14935Y2450
X15935Y2450
X15935Y1450
X16935Y1450
X16935Y2450
X17935Y2450
X17935Y1450
X18935Y1450
X18935Y2450
X19935Y2450
X19935Y1450
X20935Y1450
X20935Y2450
X21935Y2450
X21935Y1450
X22935Y1450
X22935Y2450
X23935Y2450
X23935Y1450
X21533Y14470
X21533Y15550
X21533Y16630
X21533Y17710
X21533Y18790
X22653Y18250
X22653Y17170
X22653Y16090
X22653Y15010
T07
X22093Y11700
X22093Y21560
M30
