G75*
%MOIN*%
%OFA0B0*%
%FSLAX24Y24*%
%IPPOS*%
%LPD*%
%AMOC8*
5,1,8,0,0,1.08239X$1,22.5*
%
%ADD10C,0.0540*%
%ADD11OC8,0.0540*%
%ADD12C,0.0440*%
%ADD13C,0.0651*%
%ADD14OC8,0.0560*%
%ADD15C,0.0560*%
%ADD16C,0.0591*%
%ADD17OC8,0.0660*%
%ADD18C,0.0700*%
%ADD19C,0.2060*%
%ADD20C,0.0330*%
D10*
X000785Y009245D02*
X001265Y009245D01*
X001265Y010245D02*
X000785Y010245D01*
X000785Y011245D02*
X001265Y011245D01*
X001265Y012245D02*
X000785Y012245D01*
X000785Y013245D02*
X001265Y013245D01*
X001265Y014245D02*
X000785Y014245D01*
X000785Y015245D02*
X001265Y015245D01*
X001265Y016245D02*
X000785Y016245D01*
X000785Y017245D02*
X001265Y017245D01*
X001265Y018245D02*
X000785Y018245D01*
X000785Y019245D02*
X001265Y019245D01*
X001265Y020245D02*
X000785Y020245D01*
X000785Y021245D02*
X001265Y021245D01*
X001265Y022245D02*
X000785Y022245D01*
X003785Y022245D02*
X004265Y022245D01*
X004265Y021245D02*
X003785Y021245D01*
X003785Y020245D02*
X004265Y020245D01*
X004265Y019245D02*
X003785Y019245D01*
X003785Y018245D02*
X004265Y018245D01*
X004265Y017245D02*
X003785Y017245D01*
X003785Y016245D02*
X004265Y016245D01*
X004265Y015245D02*
X003785Y015245D01*
X003785Y014245D02*
X004265Y014245D01*
X004265Y013245D02*
X003785Y013245D01*
X003785Y012245D02*
X004265Y012245D01*
X004265Y011245D02*
X003785Y011245D01*
X003785Y010245D02*
X004265Y010245D01*
X004265Y009245D02*
X003785Y009245D01*
X014345Y009613D02*
X014825Y009613D01*
X014825Y010613D02*
X014345Y010613D01*
X014345Y011613D02*
X014825Y011613D01*
X014825Y012613D02*
X014345Y012613D01*
X014345Y013613D02*
X014825Y013613D01*
X014825Y014613D02*
X014345Y014613D01*
X014345Y015613D02*
X014825Y015613D01*
X014825Y016613D02*
X014345Y016613D01*
X014345Y017613D02*
X014825Y017613D01*
X014821Y019198D02*
X014341Y019198D01*
X014341Y020198D02*
X014821Y020198D01*
X014821Y021198D02*
X014341Y021198D01*
X014341Y022198D02*
X014821Y022198D01*
X017341Y022198D02*
X017821Y022198D01*
X017821Y021198D02*
X017341Y021198D01*
X017341Y020198D02*
X017821Y020198D01*
X017821Y019198D02*
X017341Y019198D01*
X017345Y017613D02*
X017825Y017613D01*
X017825Y016613D02*
X017345Y016613D01*
X017345Y015613D02*
X017825Y015613D01*
X017825Y014613D02*
X017345Y014613D01*
X017345Y013613D02*
X017825Y013613D01*
X017825Y012613D02*
X017345Y012613D01*
X017345Y011613D02*
X017825Y011613D01*
X017825Y010613D02*
X017345Y010613D01*
X017345Y009613D02*
X017825Y009613D01*
D11*
X017628Y008154D03*
X019276Y007500D03*
X020276Y007500D03*
X020287Y009443D03*
X022723Y007460D03*
X023723Y007460D03*
X023725Y005378D03*
X023960Y003904D03*
X021960Y003904D03*
X020137Y003648D03*
X020725Y005378D03*
X017137Y003648D03*
X016120Y005794D03*
X016620Y006544D03*
X015620Y006544D03*
X014715Y006383D03*
X014716Y004962D03*
X014689Y003651D03*
X011689Y003651D03*
X011716Y004962D03*
X011715Y006383D03*
X010902Y008155D03*
X012902Y008155D03*
X014628Y008154D03*
X009550Y011660D03*
X009566Y013030D03*
X010888Y014016D03*
X012888Y014016D03*
X009235Y016696D03*
X007750Y014814D03*
X007566Y013030D03*
X007550Y011660D03*
X005739Y011388D03*
X005739Y013388D03*
X005750Y014814D03*
X009235Y018696D03*
X007741Y020583D03*
X005741Y020583D03*
X018809Y016600D03*
X018896Y019204D03*
X018896Y022204D03*
X018809Y013600D03*
X023287Y009443D03*
D12*
X013109Y010089D02*
X012729Y010089D01*
X012729Y012089D02*
X013109Y012089D01*
X005930Y016699D02*
X005550Y016699D01*
X005550Y018699D02*
X005930Y018699D01*
D13*
X005934Y008033D02*
X006524Y008033D01*
X006524Y009804D02*
X005934Y009804D01*
X008493Y009804D02*
X009084Y009804D01*
X009084Y008033D02*
X008493Y008033D01*
D14*
X011715Y017311D03*
D15*
X011715Y018111D03*
D16*
X017129Y004776D03*
X020129Y004776D03*
D17*
X019935Y002450D03*
X018935Y002450D03*
X017935Y002450D03*
X016935Y002450D03*
X015935Y002450D03*
X014935Y002450D03*
X013935Y002450D03*
X012935Y002450D03*
X011935Y002450D03*
X011935Y001450D03*
X012935Y001450D03*
X013935Y001450D03*
X014935Y001450D03*
X015935Y001450D03*
X016935Y001450D03*
X017935Y001450D03*
X018935Y001450D03*
X019935Y001450D03*
X020935Y001450D03*
X020935Y002450D03*
X021935Y002450D03*
X021935Y001450D03*
X022935Y001450D03*
X022935Y002450D03*
X023935Y002450D03*
X023935Y001450D03*
X021533Y014470D03*
X021533Y015550D03*
X021533Y016630D03*
X021533Y017710D03*
X021533Y018790D03*
X022653Y018250D03*
X022653Y017170D03*
X022653Y016090D03*
X022653Y015010D03*
D18*
X012111Y021275D03*
X011111Y021275D03*
X010111Y021275D03*
X010111Y022275D03*
X011111Y022275D03*
X012111Y022275D03*
D19*
X022093Y021560D03*
X022093Y011700D03*
D20*
X007480Y016269D03*
M02*
